<?xml version="1.0" encoding="UTF-8" standalone="no"?>
<svg
   width="211.92pt"
   height="100.079994pt"
   viewBox="0 0 211.92 100.079994"
   version="1.1"
   id="svg20"
   xmlns="http://www.w3.org/2000/svg"
   xmlns:svg="http://www.w3.org/2000/svg">
  <defs
     id="defs8">
    <clipPath
       id="clip-0">
      <path
         clip-rule="nonzero"
         d="M 1 30 L 211.921875 30 L 211.921875 78 L 1 78 Z M 1 30 "
         id="path2" />
    </clipPath>
    <clipPath
       id="clip-1">
      <path
         clip-rule="nonzero"
         d="M 0 28 L 211.921875 28 L 211.921875 77 L 0 77 Z M 0 28 "
         id="path5" />
    </clipPath>
  </defs>
  <g
     clip-path="url(#clip-0)"
     id="g12">
    <path
       fill="none"
       stroke-width="0.5"
       stroke-linecap="round"
       stroke-linejoin="round"
       stroke="#21c0a5"
       stroke-opacity="1"
       stroke-miterlimit="10"
       d="m 3.087559,42.441207 v 0 m 0,0 v 0 m -0.917747,7.149046 c 0.589235,-1.407909 6.200011,-2.591595 7.868643,-9.062759 m -7.868643,9.062759 c 1.371407,-2.899249 3.801352,-6.622384 7.868643,-9.062759 M 1.909088,55.988414 C 9.167638,53.537611 12.160747,43.119089 15.690947,40.141623 M 1.909088,55.988414 C 7.160065,48.218846 13.161926,43.588391 15.690947,40.141623 M 1.648364,62.381361 C 7.238282,54.851659 10.810198,43.880402 20.670771,40.501422 M 1.648364,62.381361 C 8.698335,52.541646 18.418118,43.358954 20.670771,40.501422 M 2.03945,68.028639 C 6.21103,62.569083 18.939565,53.438536 26.318048,40.099907 M 2.03945,68.028639 C 11.540224,60.519794 15.727448,49.157451 26.318048,40.099907 M 1.778726,74.421586 C 4.860481,66.260931 15.85781,57.140813 31.297872,40.459706 M 1.778726,74.421586 C 8.760909,64.180356 17.860169,55.769406 31.297872,40.459706 M 2.18024,80.068863 C 8.020453,70.870528 20.342259,57.5684 36.950364,40.06862 M 2.18024,80.068863 C 12.802127,69.608625 20.410047,59.242247 36.950364,40.06862 M 1.909088,86.472239 c 18.381026,-13.729714 29.159347,-37.914452 40.0211,-46.04382 m -40.0211,46.04382 C 14.788843,73.780205 24.800636,56.859232 41.930188,40.428419 M 2.310602,92.109087 C 12.619621,78.572308 19.408868,67.251682 47.577465,40.032119 M 2.310602,92.109087 C 15.920384,78.587952 25.20215,62.960168 47.577465,40.032119 M 3.358712,97.000265 C 18.53805,76.71074 34.390056,58.939808 52.562504,40.391918 M 3.358712,97.000265 C 19.580946,78.838247 37.758608,57.787408 52.562504,40.391918 M 6.377893,99.617932 C 21.280865,84.209156 36.100404,62.709873 58.209781,40.000832 M 6.377893,99.617932 C 27.491305,76.888033 45.601179,56.238709 58.209781,40.000832 M 11.368147,99.977731 C 24.857995,83.640779 42.519424,62.29793 63.189605,40.360631 m -51.821458,59.6171 c 11.633495,-16.8584 29.023771,-32.178529 51.821458,-59.6171 M 17.010209,99.59186 C 39.07787,79.218903 54.877731,50.080414 68.179858,40.72043 M 17.010209,99.59186 C 32.700566,83.218406 42.769719,67.501977 68.179858,40.72043 M 22.000462,99.951658 C 36.34027,86.258445 48.27099,64.769591 73.821921,40.318915 M 22.000462,99.951658 C 35.881396,81.330766 54.168562,64.420221 73.821921,40.318915 M 27.642525,99.550144 C 44.980656,80.058434 64.639229,61.588761 78.812174,40.678714 M 27.642525,99.550144 C 40.120765,85.0174 54.950734,67.31947 78.812174,40.678714 M 32.627564,99.909943 C 47.358457,84.761891 58.011631,63.027956 84.449022,40.287628 M 32.627564,99.909943 C 50.721794,81.252549 66.219216,60.978668 84.449022,40.287628 M 38.269626,99.518857 C 51.00859,90.977546 59.659405,71.668343 89.439275,40.647427 M 38.269626,99.518857 C 53.120453,86.11244 63.429471,70.411654 89.439275,40.647427 M 43.259879,99.878656 C 58.741658,85.382413 74.661452,62.589941 95.081338,40.261556 m -51.821459,59.6171 C 59.810625,81.122187 74.958677,65.598693 95.081338,40.261556 m -46.179396,59.2208 C 61.088172,81.179546 80.720672,59.508185 100.07159,40.621355 M 48.901942,99.482356 C 64.070852,80.277442 82.420591,58.731229 100.07159,40.621355 M 53.892195,99.842154 C 67.241253,82.248514 82.467522,62.678587 105.70844,40.21984 M 53.892195,99.842154 C 73.451693,76.210151 95.571499,54.648294 105.70844,40.21984 M 59.529043,99.451069 C 75.589628,80.10015 90.508243,63.690195 110.69869,40.579639 M 59.529043,99.451069 C 75.91814,80.308729 91.582425,61.922488 110.69869,40.579639 M 64.519296,99.810867 C 79.041611,77.289547 98.022302,56.082275 116.34076,40.188553 M 64.519296,99.810867 C 76.929748,84.068366 87.629852,69.80156 116.34076,40.188553 M 69.499121,100.17067 C 82.691744,85.069545 96.348456,62.720302 121.33101,40.548352 M 69.499121,100.17067 C 80.78846,83.708567 95.592357,71.730916 121.33101,40.548352 m -46.179398,59.2208 C 90.628176,86.430523 103.25242,67.392473 126.96786,40.152052 m -51.816248,59.6171 C 92.609677,79.208474 109.60887,57.1721 126.96786,40.152052 M 80.131436,100.12895 C 93.52221,76.679454 116.11132,62.788091 131.95811,40.511851 M 80.131436,100.12895 C 100.05073,75.938998 117.56094,57.688333 131.95811,40.511851 M 85.778714,99.737865 C 95.837437,89.559208 104.96798,71.251185 136.94836,40.87165 M 85.778714,99.737865 C 96.192021,86.722534 105.81794,76.460446 136.94836,40.87165 M 90.758538,100.09766 C 109.69751,79.912429 128.57913,57.542328 142.59042,40.480564 M 90.758538,100.09766 C 102.03745,85.51799 116.26775,68.638732 142.59042,40.480564 M 96.411029,99.711792 C 111.87195,84.27173 124.72042,69.300971 147.58068,40.840363 M 96.411029,99.711792 C 106.42804,88.057439 117.92074,74.760527 147.58068,40.840363 M 101.39085,100.07159 C 113.259,88.161729 120.89821,69.061105 153.21753,40.438848 m -51.82668,59.632742 c 12.40003,-11.763856 24.32032,-25.613503 51.82668,-59.632742 m -46.1794,59.231229 c 18.10987,-21.421066 36.8507,-40.099318 51.16965,-58.87143 m -51.16965,58.87143 c 12.08194,-9.94922 22.51089,-24.059591 51.16965,-58.87143 m -46.18982,59.231233 c 12.3218,-12.128875 23.22005,-31.531939 51.83188,-59.622319 M 112.01796,100.02988 C 132.10933,77.722349 150.53207,59.659405 163.84984,40.407561 M 117.67045,99.63879 C 127.05129,84.761891 137.76182,74.890889 168.8401,40.772575 M 117.67045,99.63879 C 129.76803,88.688391 138.95072,72.257578 168.8401,40.772575 m -46.18983,59.226014 c 18.04209,-23.788438 36.1311,-42.748272 51.83189,-59.627529 m -51.83189,59.627529 c 12.06108,-15.236698 24.14824,-28.59097 51.83189,-59.627529 m -46.18461,59.231228 c 22.29188,-23.81451 37.15314,-49.91296 51.17486,-58.871429 m -51.17486,58.871429 c 17.91172,-20.77447 36.75162,-45.522372 51.17486,-58.871429 M 133.28259,99.962087 C 143.9514,85.220765 156.39836,71.522337 185.10926,40.339773 M 133.28259,99.962087 C 146.42828,84.297803 162.42108,66.1775 185.10926,40.339773 m -46.84164,59.982117 c 17.1817,-23.652865 38.65491,-44.323047 51.83189,-59.622318 M 138.26762,100.32189 C 149.57782,84.522025 161.9622,71.318973 190.09951,40.699572 M 143.90969,99.9308 C 162.69223,78.10822 177.53784,58.658226 195.74157,40.308486 M 143.90969,99.9308 C 162.64008,76.689883 182.34037,54.909018 195.74157,40.308486 M 148.89994,100.2906 C 163.56826,81.810498 183.55013,58.439218 200.73183,40.668285 M 148.89994,100.2906 C 159.79819,84.047508 171.42126,72.862457 200.73183,40.668285 M 154.542,99.889085 C 166.20157,88.881327 180.51009,68.471869 205.72208,41.028084 M 154.542,99.889085 C 170.61823,76.158006 190.42802,55.899768 205.72208,41.028084 M 159.53226,100.24888 C 176.3698,78.932107 200.11131,55.659902 211.35893,40.631784 m -51.82667,59.617096 c 9.5477,-12.770247 22.10937,-22.896759 51.82667,-59.617096 M 165.1691,99.857798 c 15.53914,-15.799861 21.541,-28.997699 51.18008,-58.866215 M 165.1691,99.857798 C 177.5587,81.852213 192.85797,68.722164 216.34918,40.991583 M 170.15936,100.2176 C 182.8201,80.929251 201.26892,61.500115 221.99125,40.600497 M 170.15936,100.2176 C 182.42902,87.170979 196.1483,73.310902 221.99125,40.600497 m -46.18983,59.220799 c 9.80843,-16.15966 25.7908,-30.400392 51.18008,-58.861 m -51.18008,58.861 c 10.86697,-14.219875 20.7484,-27.991305 51.18008,-58.861 M 180.79167,100.1811 C 201.33149,81.017897 221.19864,60.118279 232.61835,40.558781 M 180.79167,100.1811 C 198.14023,81.951288 213.85145,62.871522 232.61835,40.558781 M 186.42852,99.79001 C 197.06084,90.127586 207.79223,77.737992 237.6086,40.91858 M 186.42852,99.79001 C 203.05227,80.501664 221.84003,61.870343 237.6086,40.91858 m -46.18983,59.23123 C 215.81209,73.847993 229.8286,54.742155 243.25066,40.527494 m -51.83189,59.622316 c 9.20355,-14.741324 22.42225,-26.129739 51.83189,-59.622316 m -46.18982,59.2208 C 207.88087,89.288056 218.98771,76.841102 248.24092,40.892507 M 197.06084,99.748294 C 209.95102,84.81925 222.0121,69.280113 248.24092,40.892507 m -46.18983,59.215583 c 13.60978,-17.880434 25.87944,-33.518647 51.82667,-59.617097 m -51.82667,59.617097 c 22.13023,-24.116947 42.55012,-45.058281 51.82667,-59.617097 m -46.83642,59.976897 c 23.98659,-22.229308 42.37805,-45.9291 51.82668,-59.617098 M 207.04134,100.46789 C 224.78099,79.870713 244.9923,57.318106 258.86802,40.850792 m -46.18983,59.231228 c 9.43299,-11.164192 23.11056,-29.320996 51.83189,-59.622314 M 212.67819,100.08202 C 229.4323,84.370805 245.55025,65.337969 264.51008,40.459706 M 217.66844,100.44182 C 229.02036,82.832535 243.50096,67.491548 269.50033,40.819505 M 217.66844,100.44182 C 229.20808,88.1513 240.47135,75.610486 269.50033,40.819505 m -46.18982,59.231225 c 19.12148,-21.280272 35.20814,-37.559865 51.16965,-58.871426 m -51.16965,58.871426 c 17.67707,-19.569924 34.46768,-36.819409 51.16965,-58.871426 m -46.1794,59.231226 C 243.8399,86.607815 254.84766,78.030003 278.8186,42.289987 M 228.30076,100.41053 C 241.40995,84.631529 257.79905,67.637553 278.8186,42.289987 m -44.88099,57.719033 c 20.64411,-22.177167 41.36122,-38.696626 46.58091,-53.578739 m -46.58091,53.578739 c 8.33273,-12.900615 20.25302,-24.716617 46.58091,-53.578739 m -41.59066,53.938539 c 14.0113,-17.43721 33.59165,-32.199391 43.30101,-49.808675 m -43.30101,49.808675 c 19.24142,-19.366566 36.1311,-39.348437 43.30101,-49.808675 M 244.56992,99.977731 C 257.00123,85.898647 273.2704,71.897779 282.61995,56.202208 m -38.05003,43.775523 c 7.54014,-10.449809 15.94066,-18.328882 38.05003,-43.775523 M 249.56018,100.33753 C 263.80091,85.252052 277.71835,72.560018 282.35923,62.600369 M 249.56018,100.33753 C 260.6983,89.241125 270.73095,75.250687 282.35923,62.600369 m -27.15699,37.34086 c 3.24862,-10.689675 14.6266,-11.649138 26.89627,-30.942698 m -26.89627,30.942698 c 5.72028,-8.848965 11.43013,-13.42206 26.89627,-30.942698 m -21.90602,31.302499 c 4.26545,-3.978647 14.89776,-14.251164 22.2971,-25.660436 m -22.2971,25.660436 c 4.03601,-8.400522 9.14619,-14.543174 22.2971,-25.660436 m -16.66025,25.269349 c 8.12937,-8.25973 8.31188,-12.248804 16.39953,-18.871188 m -16.39953,18.871188 c 4.21851,-7.769569 10.4811,-13.020546 16.39953,-18.871188 m -11.40928,19.230985 c 1.42877,-5.85064 5.87151,-8.718602 11.14855,-12.827609 m -11.14855,12.827609 c 4.77125,-3.738778 9.38085,-7.999004 11.14855,-12.827609 m -7.47755,14.699609 c 1.67906,-1.31405 3.24862,-2.08058 5.908,-6.789249 m -5.908,6.789249 c 1.11068,-1.37141 3.14954,-5.204049 5.908,-6.789249"
       transform="matrix(0.749117,0,0,0.749117,0.374558,0.374558)"
       id="path10" />
  </g>
  <g
     clip-path="url(#clip-1)"
     id="g16">
    <path
       fill="none"
       stroke-width="1"
       stroke-linecap="round"
       stroke-linejoin="round"
       stroke="#006658"
       stroke-opacity="1"
       stroke-miterlimit="10"
       d="m 10.001954,40.000832 c 56.159902,1.84071 106.307516,-1.011608 261.996116,0 m -261.996116,0 c 92.447436,3.790924 186.240206,3.597988 261.996116,0 m 0,0 c 6.24172,0.730027 8.61431,2.200509 9.00018,9.000185 m -9.00018,-9.000185 c 3.26947,-3.222546 13.29169,-1.022037 9.00018,9.000185 m 0,0 c 2.20051,11.508348 3.4937,27.188276 0,41.997387 m 0,-41.997387 c 2.27351,7.837357 -0.67788,20.200879 0,41.997387 m 0,0 c 0.18251,8.291016 -5.97579,10.653176 -9.00018,9.000185 m 9.00018,-9.000185 c -1.15761,5.162331 0.89168,10.710536 -9.00018,9.000185 m 0,0 c -84.86559,-1.647775 -173.907979,0.073 -261.996116,0 m 261.996116,0 c -64.46657,0.500591 -125.96609,-0.469303 -261.996116,0 m 0,0 C 2.597399,101.15099 -1.480321,96.019944 1.001769,90.998404 m 9.000185,9.000185 C 7.452075,98.950479 3.207492,95.232558 1.001769,90.998404 m 0,0 c -0.839531,-5.068471 -2.48209,-19.976656 0,-41.997387 m 0,41.997387 c -2.012788,-12.848468 1.068967,-22.469176 0,-41.997387 m 0,0 c 0.959463,-2.581165 2.205723,-6.841392 9.000185,-9.000185 M 1.001769,49.001017 C 5.22028,39.510671 4.589328,42.2587 10.001954,40.000832"
       transform="matrix(0.749117,0,0,0.749117,0.374558,0.374558)"
       id="path14" />
  </g>
  <path
     fill-rule="nonzero"
     fill="rgb(36.079407%, 36.079407%, 36.079407%)"
     fill-opacity="1"
     d="M 40.929688 48.476563 C 41.675781 48.214844 42.65625 48.082031 43.875 48.082031 C 46.125 48.082031 47.675781 48.652344 48.523438 49.789063 C 48.867188 50.238281 49.039063 50.804688 49.039063 51.492188 L 48.804688 51.492188 L 49.035156 51.46875 C 49.046875 51.5625 49.050781 51.660156 49.050781 51.757813 C 49.050781 52.800781 48.457031 53.851563 47.261719 54.902344 C 46.195313 55.867188 44.886719 56.640625 43.328125 57.226563 C 42.285156 57.628906 41.417969 57.828125 40.726563 57.828125 C 40.425781 57.828125 40.160156 57.785156 39.9375 57.695313 L 39.789063 57.636719 L 39.789063 48.113281 L 40.230469 48.113281 C 40.492188 48.113281 40.710938 48.160156 40.882813 48.25 C 41.082031 48.359375 41.199219 48.488281 41.234375 48.648438 L 41.003906 48.699219 Z M 41.082031 48.917969 L 40.835938 49.007813 L 40.777344 48.75 C 40.773438 48.730469 40.734375 48.703125 40.660156 48.664063 C 40.558594 48.609375 40.414063 48.582031 40.230469 48.582031 L 40.023438 48.582031 L 40.023438 48.347656 L 40.257813 48.347656 L 40.257813 57.476563 L 40.023438 57.476563 L 40.113281 57.261719 C 40.277344 57.328125 40.484375 57.359375 40.726563 57.359375 C 41.363281 57.359375 42.171875 57.171875 43.160156 56.789063 C 44.664063 56.226563 45.929688 55.476563 46.953125 54.550781 C 48.039063 53.59375 48.585938 52.660156 48.585938 51.757813 C 48.585938 51.675781 48.578125 51.597656 48.570313 51.519531 L 48.570313 51.492188 C 48.570313 50.910156 48.429688 50.4375 48.148438 50.066406 C 47.394531 49.058594 45.96875 48.550781 43.875 48.550781 C 42.710938 48.550781 41.78125 48.675781 41.082031 48.917969 Z M 47.589844 51.632813 C 47.511719 50.851563 47.074219 50.273438 46.273438 49.890625 C 45.652344 49.59375 44.867188 49.445313 43.917969 49.445313 L 43.917969 49.210938 L 43.929688 49.445313 L 43.664063 49.460938 L 43.660156 49.460938 C 42.761719 49.476563 41.988281 49.617188 41.34375 49.882813 L 41.253906 49.664063 L 41.488281 49.664063 L 41.488281 56.644531 L 41.253906 56.644531 L 41.253906 56.410156 C 41.902344 56.410156 42.71875 56.167969 43.710938 55.6875 C 45.445313 54.832031 46.628906 53.84375 47.269531 52.722656 C 47.484375 52.347656 47.589844 51.976563 47.589844 51.609375 L 47.824219 51.609375 Z M 48.054688 51.585938 L 48.058594 51.597656 L 48.058594 51.609375 C 48.058594 52.0625 47.929688 52.507813 47.675781 52.957031 C 46.988281 54.15625 45.734375 55.207031 43.917969 56.109375 C 42.859375 56.621094 41.972656 56.878906 41.253906 56.878906 L 41.019531 56.878906 L 41.019531 49.507813 L 41.167969 49.445313 C 41.867188 49.164063 42.691406 49.011719 43.648438 48.992188 L 43.652344 49.226563 L 43.640625 48.992188 L 43.910156 48.976563 L 43.917969 48.976563 C 44.9375 48.976563 45.789063 49.140625 46.476563 49.46875 C 47.433594 49.925781 47.960938 50.632813 48.054688 51.585938 Z M 41.003906 48.699219 C 41.726563 48.445313 42.683594 48.316406 43.875 48.316406 C 46.046875 48.316406 47.535156 48.855469 48.335938 49.925781 C 48.648438 50.335938 48.804688 50.859375 48.804688 51.492188 C 48.8125 51.582031 48.820313 51.667969 48.820313 51.757813 C 48.820313 52.730469 48.246094 53.722656 47.105469 54.726563 C 46.0625 55.671875 44.773438 56.433594 43.242188 57.007813 C 42.230469 57.398438 41.390625 57.59375 40.726563 57.59375 C 40.453125 57.59375 40.21875 57.554688 40.023438 57.476563 L 40.023438 48.347656 L 40.230469 48.347656 C 40.453125 48.347656 40.632813 48.382813 40.769531 48.457031 C 40.90625 48.53125 40.984375 48.609375 41.003906 48.699219 Z M 47.824219 51.609375 C 47.734375 50.742188 47.253906 50.097656 46.375 49.679688 C 45.722656 49.367188 44.902344 49.210938 43.917969 49.210938 L 43.652344 49.226563 C 42.726563 49.246094 41.925781 49.390625 41.253906 49.664063 L 41.253906 56.644531 C 41.9375 56.644531 42.789063 56.394531 43.816406 55.898438 C 45.589844 55.019531 46.808594 54 47.472656 52.839844 C 47.707031 52.429688 47.824219 52.019531 47.824219 51.609375 Z M 52.5625 56.421875 C 53.390625 56.421875 54.648438 56.039063 56.34375 55.273438 L 56.390625 55.253906 L 56.441406 55.253906 C 56.617188 55.253906 56.761719 55.316406 56.875 55.4375 C 56.984375 55.554688 57.042969 55.695313 57.042969 55.851563 L 57.042969 55.917969 L 57.007813 55.972656 C 56.589844 56.683594 55.800781 57.238281 54.644531 57.625 C 53.496094 58.011719 52.425781 58.078125 51.421875 57.820313 C 50.25 57.515625 49.535156 56.847656 49.277344 55.820313 L 49.273438 55.804688 L 49.273438 55.789063 C 49.253906 55.597656 49.242188 55.339844 49.242188 55.019531 C 49.242188 54.683594 49.328125 54.246094 49.496094 53.710938 C 49.664063 53.171875 49.957031 52.65625 50.367188 52.175781 C 50.777344 51.691406 51.261719 51.3125 51.816406 51.035156 C 52.375 50.753906 52.972656 50.613281 53.601563 50.613281 C 54.207031 50.613281 54.882813 50.820313 55.617188 51.230469 C 55.976563 51.429688 56.261719 51.65625 56.476563 51.914063 C 56.707031 52.191406 56.820313 52.480469 56.820313 52.78125 C 56.820313 52.859375 56.816406 52.9375 56.804688 53.019531 L 56.574219 52.984375 L 56.808594 52.992188 C 56.785156 53.703125 56.4375 54.152344 55.773438 54.335938 C 55.507813 54.410156 55.203125 54.449219 54.859375 54.449219 L 54.855469 54.449219 L 52.746094 54.359375 L 52.753906 54.125 L 52.753906 54.359375 C 52.109375 54.359375 51.621094 54.496094 51.292969 54.761719 L 51.289063 54.761719 L 51.289063 54.765625 C 51.113281 54.898438 50.992188 55.105469 50.917969 55.386719 L 50.691406 55.328125 L 50.917969 55.265625 C 51.128906 56.039063 51.679688 56.421875 52.5625 56.421875 Z M 52.5625 56.890625 C 51.441406 56.890625 50.742188 56.390625 50.464844 55.386719 L 50.449219 55.328125 L 50.464844 55.265625 C 50.566406 54.882813 50.746094 54.59375 51 54.394531 L 51.144531 54.582031 L 50.996094 54.398438 C 51.410156 54.0625 51.996094 53.890625 52.753906 53.890625 L 52.757813 53.890625 L 54.871094 53.980469 L 54.859375 54.214844 L 54.859375 53.980469 C 55.160156 53.980469 55.421875 53.949219 55.644531 53.886719 C 56.09375 53.761719 56.324219 53.457031 56.339844 52.976563 L 56.339844 52.953125 C 56.347656 52.894531 56.351563 52.835938 56.351563 52.78125 C 56.351563 52.59375 56.273438 52.402344 56.113281 52.214844 C 55.9375 52 55.695313 51.808594 55.390625 51.640625 C 54.722656 51.269531 54.128906 51.082031 53.601563 51.082031 C 53.042969 51.082031 52.519531 51.207031 52.023438 51.453125 C 51.527344 51.703125 51.09375 52.042969 50.722656 52.480469 C 50.355469 52.914063 50.09375 53.371094 49.941406 53.851563 C 49.789063 54.34375 49.710938 54.730469 49.710938 55.019531 C 49.710938 55.324219 49.71875 55.5625 49.738281 55.742188 L 49.507813 55.765625 L 49.734375 55.707031 C 49.945313 56.554688 50.546875 57.109375 51.539063 57.367188 C 52.449219 57.601563 53.433594 57.539063 54.492188 57.183594 C 55.539063 56.828125 56.246094 56.347656 56.605469 55.734375 L 56.808594 55.851563 L 56.574219 55.851563 C 56.574219 55.816406 56.558594 55.785156 56.535156 55.757813 C 56.511719 55.734375 56.480469 55.722656 56.441406 55.722656 L 56.441406 55.488281 L 56.539063 55.699219 C 54.78125 56.496094 53.457031 56.890625 52.5625 56.890625 Z M 55.039063 52.328125 C 54.84375 52.1875 54.636719 52.085938 54.429688 52.023438 C 54.21875 51.964844 54.042969 51.933594 53.910156 51.933594 C 53.777344 51.933594 53.542969 51.980469 53.214844 52.078125 C 52.875 52.175781 52.574219 52.285156 52.3125 52.40625 C 51.730469 52.679688 51.4375 52.933594 51.4375 53.175781 L 51.203125 53.175781 L 51.222656 52.941406 C 51.996094 53.011719 52.574219 53.042969 52.960938 53.042969 C 54.003906 53.042969 54.703125 52.960938 55.050781 52.789063 L 55.058594 52.785156 L 55.0625 52.785156 C 55.203125 52.726563 55.269531 52.675781 55.269531 52.632813 C 55.269531 52.539063 55.195313 52.4375 55.039063 52.328125 Z M 55.3125 51.945313 C 55.597656 52.148438 55.738281 52.378906 55.738281 52.632813 C 55.738281 52.882813 55.574219 53.078125 55.242188 53.214844 L 55.152344 53 L 55.257813 53.210938 C 54.84375 53.410156 54.078125 53.511719 52.960938 53.511719 C 52.5625 53.511719 51.96875 53.476563 51.183594 53.410156 L 50.96875 53.390625 L 50.96875 53.175781 C 50.96875 52.734375 51.351563 52.335938 52.113281 51.984375 C 52.398438 51.851563 52.722656 51.734375 53.082031 51.625 C 53.457031 51.519531 53.730469 51.464844 53.910156 51.464844 C 54.089844 51.464844 54.304688 51.5 54.5625 51.574219 C 54.820313 51.652344 55.070313 51.773438 55.3125 51.945313 Z M 52.5625 56.65625 C 53.421875 56.65625 54.714844 56.269531 56.441406 55.488281 C 56.546875 55.488281 56.636719 55.523438 56.703125 55.597656 C 56.773438 55.671875 56.808594 55.753906 56.808594 55.851563 C 56.417969 56.515625 55.671875 57.035156 54.570313 57.402344 C 53.464844 57.773438 52.4375 57.839844 51.480469 57.59375 C 50.398438 57.3125 49.738281 56.703125 49.507813 55.765625 C 49.488281 55.578125 49.476563 55.332031 49.476563 55.019531 C 49.476563 54.707031 49.558594 54.292969 49.71875 53.78125 C 49.878906 53.269531 50.15625 52.785156 50.542969 52.328125 C 50.933594 51.867188 51.394531 51.507813 51.921875 51.246094 C 52.445313 50.980469 53.007813 50.847656 53.601563 50.847656 C 54.167969 50.847656 54.800781 51.042969 55.503906 51.433594 C 55.835938 51.621094 56.101563 51.828125 56.296875 52.0625 C 56.488281 52.296875 56.585938 52.535156 56.585938 52.78125 C 56.585938 52.847656 56.582031 52.917969 56.574219 52.984375 C 56.554688 53.582031 56.265625 53.957031 55.710938 54.113281 C 55.464844 54.179688 55.183594 54.214844 54.859375 54.214844 L 52.753906 54.125 C 52.050781 54.125 51.515625 54.277344 51.144531 54.582031 C 50.929688 54.746094 50.777344 54.996094 50.691406 55.328125 C 50.933594 56.214844 51.558594 56.65625 52.5625 56.65625 Z M 55.175781 52.136719 C 54.957031 51.980469 54.730469 51.867188 54.496094 51.800781 C 54.261719 51.730469 54.066406 51.699219 53.910156 51.699219 C 53.753906 51.699219 53.5 51.75 53.148438 51.851563 C 52.796875 51.953125 52.484375 52.070313 52.210938 52.195313 C 51.539063 52.507813 51.203125 52.835938 51.203125 53.175781 C 51.984375 53.242188 52.570313 53.277344 52.960938 53.277344 C 54.042969 53.277344 54.773438 53.183594 55.152344 53 C 55.386719 52.902344 55.503906 52.78125 55.503906 52.632813 C 55.503906 52.457031 55.394531 52.292969 55.175781 52.136719 Z M 63.515625 55.921875 C 63.914063 55.757813 64.304688 55.609375 64.6875 55.472656 C 65.09375 55.324219 65.484375 55.253906 65.855469 55.253906 C 66.359375 55.253906 66.609375 55.4375 66.609375 55.808594 C 66.609375 55.875 66.59375 55.96875 66.566406 56.089844 C 66.527344 56.257813 66.359375 56.429688 66.0625 56.601563 C 65.8125 56.75 65.507813 56.890625 65.148438 57.023438 C 64.792969 57.152344 64.410156 57.273438 63.992188 57.382813 C 63.578125 57.488281 63.171875 57.582031 62.777344 57.664063 C 61.953125 57.832031 61.363281 57.917969 61.007813 57.917969 C 60.648438 57.917969 60.265625 57.875 59.855469 57.792969 C 59.441406 57.710938 59.050781 57.578125 58.691406 57.394531 C 57.816406 56.9375 57.378906 56.265625 57.378906 55.371094 L 57.378906 55.019531 C 57.378906 54.808594 57.457031 54.527344 57.617188 54.171875 C 57.773438 53.820313 58.007813 53.472656 58.316406 53.128906 C 58.621094 52.789063 58.976563 52.476563 59.378906 52.195313 C 60.226563 51.589844 61.113281 51.195313 62.042969 51.015625 L 62.089844 51.246094 L 62.039063 51.015625 C 62.367188 50.945313 62.644531 50.90625 62.871094 50.90625 C 63.085938 50.90625 63.261719 50.910156 63.398438 50.914063 C 63.539063 50.921875 63.6875 50.929688 63.839844 50.945313 C 64.015625 50.964844 64.171875 51.007813 64.308594 51.082031 L 64.195313 51.289063 L 64.300781 51.078125 C 64.640625 51.25 64.808594 51.566406 64.808594 52.035156 C 64.808594 52.351563 64.609375 52.644531 64.210938 52.914063 C 64.125 52.972656 64.046875 53.027344 63.980469 53.074219 L 63.691406 53.28125 L 63.617188 52.933594 C 63.570313 52.726563 63.515625 52.554688 63.445313 52.417969 C 63.410156 52.347656 63.308594 52.3125 63.140625 52.3125 L 63.140625 52.078125 L 63.191406 52.308594 C 62.066406 52.546875 61.097656 52.902344 60.289063 53.378906 C 59.429688 53.886719 59 54.40625 59 54.929688 C 59 54.988281 59.007813 55.054688 59.015625 55.121094 L 59.015625 55.152344 C 59.015625 55.683594 59.214844 56.058594 59.613281 56.277344 C 59.9375 56.453125 60.367188 56.539063 60.894531 56.539063 C 61.441406 56.539063 61.914063 56.476563 62.3125 56.355469 C 62.726563 56.222656 63.125 56.082031 63.515625 55.921875 Z M 63.691406 56.355469 C 63.289063 56.519531 62.878906 56.667969 62.453125 56.800781 C 62.007813 56.941406 61.492188 57.007813 60.894531 57.007813 C 60.285156 57.007813 59.78125 56.902344 59.386719 56.6875 C 58.828125 56.378906 58.546875 55.867188 58.546875 55.152344 L 58.78125 55.152344 L 58.550781 55.179688 C 58.539063 55.09375 58.535156 55.007813 58.535156 54.929688 C 58.535156 54.226563 59.039063 53.574219 60.054688 52.972656 C 60.90625 52.472656 61.917969 52.097656 63.09375 51.847656 L 63.117188 51.84375 L 63.140625 51.84375 C 63.503906 51.84375 63.742188 51.964844 63.863281 52.207031 C 63.949219 52.382813 64.019531 52.589844 64.074219 52.832031 L 63.84375 52.882813 L 63.707031 52.691406 C 63.777344 52.640625 63.859375 52.585938 63.949219 52.527344 C 64.210938 52.351563 64.34375 52.1875 64.34375 52.035156 C 64.34375 51.761719 64.257813 51.582031 64.089844 51.496094 L 64.085938 51.496094 L 64.082031 51.492188 C 64.003906 51.449219 63.90625 51.421875 63.792969 51.410156 C 63.652344 51.398438 63.515625 51.386719 63.382813 51.382813 C 63.25 51.378906 63.078125 51.375 62.871094 51.375 C 62.679688 51.375 62.433594 51.410156 62.140625 51.472656 L 62.132813 51.472656 C 61.269531 51.644531 60.441406 52.011719 59.648438 52.578125 C 59.273438 52.839844 58.945313 53.128906 58.664063 53.441406 C 58.386719 53.75 58.179688 54.058594 58.042969 54.359375 C 57.914063 54.65625 57.847656 54.875 57.847656 55.019531 L 57.847656 55.371094 C 57.847656 56.074219 58.199219 56.609375 58.902344 56.976563 C 59.226563 57.140625 59.574219 57.261719 59.945313 57.335938 C 60.328125 57.410156 60.679688 57.449219 61.007813 57.449219 C 61.332031 57.449219 61.890625 57.367188 62.6875 57.203125 C 63.074219 57.125 63.46875 57.035156 63.875 56.929688 C 64.277344 56.824219 64.648438 56.707031 64.984375 56.585938 C 65.320313 56.460938 65.597656 56.335938 65.824219 56.199219 C 66.007813 56.09375 66.101563 56.019531 66.113281 55.980469 C 66.132813 55.898438 66.140625 55.839844 66.140625 55.808594 C 66.140625 55.75 66.046875 55.722656 65.855469 55.722656 C 65.539063 55.722656 65.199219 55.785156 64.84375 55.914063 C 64.46875 56.046875 64.082031 56.195313 63.691406 56.355469 Z M 63.601563 56.136719 C 64 55.976563 64.386719 55.828125 64.765625 55.691406 C 65.148438 55.554688 65.511719 55.488281 65.855469 55.488281 C 66.203125 55.488281 66.375 55.59375 66.375 55.808594 C 66.375 55.859375 66.363281 55.933594 66.339844 56.035156 C 66.316406 56.136719 66.183594 56.261719 65.945313 56.402344 C 65.707031 56.542969 65.414063 56.675781 65.066406 56.804688 C 64.71875 56.929688 64.34375 57.046875 63.933594 57.15625 C 63.523438 57.261719 63.121094 57.355469 62.734375 57.433594 C 61.921875 57.597656 61.347656 57.683594 61.007813 57.683594 C 60.664063 57.683594 60.296875 57.644531 59.902344 57.566406 C 59.507813 57.488281 59.136719 57.359375 58.796875 57.183594 C 58.007813 56.773438 57.613281 56.171875 57.613281 55.371094 C 57.613281 55.3125 57.613281 55.195313 57.613281 55.019531 C 57.613281 54.84375 57.683594 54.59375 57.832031 54.265625 C 57.976563 53.9375 58.195313 53.613281 58.488281 53.285156 C 58.78125 52.957031 59.125 52.660156 59.515625 52.386719 C 60.332031 51.800781 61.191406 51.417969 62.089844 51.246094 C 62.402344 51.175781 62.660156 51.140625 62.871094 51.140625 C 63.082031 51.140625 63.253906 51.144531 63.390625 51.148438 C 63.527344 51.152344 63.667969 51.164063 63.816406 51.179688 C 63.960938 51.191406 64.089844 51.230469 64.195313 51.289063 C 64.449219 51.414063 64.578125 51.664063 64.578125 52.035156 C 64.578125 52.269531 64.410156 52.496094 64.078125 52.722656 C 63.992188 52.78125 63.914063 52.835938 63.84375 52.882813 C 63.796875 52.660156 63.734375 52.46875 63.65625 52.3125 C 63.578125 52.15625 63.40625 52.078125 63.140625 52.078125 C 61.992188 52.320313 61 52.6875 60.171875 53.175781 C 59.234375 53.730469 58.769531 54.316406 58.769531 54.929688 C 58.769531 55 58.773438 55.074219 58.78125 55.152344 C 58.78125 55.773438 59.019531 56.21875 59.5 56.480469 C 59.859375 56.675781 60.324219 56.773438 60.894531 56.773438 C 61.46875 56.773438 61.960938 56.710938 62.382813 56.578125 C 62.800781 56.445313 63.207031 56.300781 63.601563 56.136719 Z M 67.296875 54.902344 C 67.296875 53.671875 67.828125 52.679688 68.890625 51.929688 C 69.710938 51.351563 70.699219 51 71.851563 50.878906 L 72.285156 50.878906 C 72.527344 50.878906 72.839844 50.945313 73.226563 51.082031 C 74.09375 51.378906 74.683594 51.902344 75.003906 52.660156 C 75.132813 52.960938 75.199219 53.222656 75.199219 53.445313 C 75.199219 53.644531 75.191406 53.789063 75.183594 53.878906 L 74.949219 53.847656 L 75.183594 53.847656 C 75.183594 55.144531 74.691406 56.167969 73.699219 56.917969 C 72.800781 57.59375 71.679688 57.929688 70.339844 57.929688 C 69.355469 57.929688 68.601563 57.695313 68.085938 57.226563 C 67.558594 56.75 67.296875 55.976563 67.296875 54.902344 Z M 67.765625 54.902344 C 67.765625 55.835938 67.976563 56.496094 68.398438 56.878906 C 68.828125 57.269531 69.472656 57.460938 70.339844 57.460938 C 71.578125 57.460938 72.601563 57.15625 73.417969 56.542969 C 74.28125 55.890625 74.714844 54.992188 74.714844 53.847656 L 74.714844 53.835938 L 74.71875 53.820313 C 74.726563 53.75 74.730469 53.625 74.730469 53.445313 C 74.730469 53.289063 74.679688 53.085938 74.574219 52.84375 C 74.308594 52.214844 73.808594 51.773438 73.074219 51.523438 C 72.738281 51.40625 72.476563 51.347656 72.285156 51.347656 L 71.878906 51.347656 L 71.878906 51.113281 L 71.902344 51.34375 C 70.828125 51.457031 69.914063 51.78125 69.160156 52.3125 C 68.230469 52.96875 67.765625 53.832031 67.765625 54.902344 Z M 68.773438 55.253906 C 68.773438 55.773438 68.902344 56.121094 69.152344 56.289063 C 69.355469 56.417969 69.722656 56.480469 70.253906 56.480469 C 70.8125 56.480469 71.304688 56.441406 71.730469 56.355469 C 72.140625 56.273438 72.503906 56.132813 72.820313 55.933594 C 73.480469 55.511719 73.808594 54.851563 73.808594 53.949219 C 73.808594 53.421875 73.671875 52.996094 73.394531 52.667969 C 73.101563 52.324219 72.710938 52.152344 72.226563 52.152344 L 72.226563 51.917969 L 72.269531 52.148438 C 71.890625 52.214844 71.511719 52.289063 71.125 52.367188 C 70.769531 52.4375 70.433594 52.578125 70.117188 52.785156 C 69.433594 53.226563 68.984375 54.0625 68.773438 55.292969 L 68.542969 55.253906 Z M 68.308594 55.253906 L 68.308594 55.234375 L 68.3125 55.214844 C 68.546875 53.847656 69.0625 52.910156 69.859375 52.394531 C 70.226563 52.152344 70.617188 51.992188 71.035156 51.90625 C 71.421875 51.828125 71.804688 51.753906 72.1875 51.6875 L 72.207031 51.683594 L 72.226563 51.683594 C 72.855469 51.683594 73.363281 51.910156 73.753906 52.367188 C 74.101563 52.78125 74.277344 53.308594 74.277344 53.949219 C 74.277344 55.023438 73.875 55.8125 73.070313 56.328125 C 72.703125 56.558594 72.289063 56.722656 71.820313 56.8125 C 71.367188 56.90625 70.84375 56.949219 70.253906 56.949219 C 69.632813 56.949219 69.179688 56.859375 68.894531 56.675781 C 68.503906 56.417969 68.308594 55.941406 68.308594 55.253906 Z M 67.53125 54.902344 C 67.53125 53.75 68.027344 52.824219 69.023438 52.121094 C 69.8125 51.566406 70.765625 51.230469 71.878906 51.113281 C 71.9375 51.113281 72.070313 51.113281 72.285156 51.113281 C 72.5 51.113281 72.789063 51.175781 73.148438 51.304688 C 73.949219 51.574219 74.496094 52.058594 74.789063 52.75 C 74.90625 53.023438 74.964844 53.257813 74.964844 53.445313 C 74.964844 53.636719 74.960938 53.769531 74.949219 53.847656 C 74.949219 55.066406 74.488281 56.027344 73.558594 56.730469 C 72.703125 57.375 71.628906 57.695313 70.339844 57.695313 C 69.414063 57.695313 68.714844 57.480469 68.242188 57.054688 C 67.769531 56.625 67.53125 55.90625 67.53125 54.902344 Z M 68.542969 55.253906 C 68.542969 55.859375 68.703125 56.269531 69.023438 56.480469 C 69.269531 56.636719 69.675781 56.714844 70.253906 56.714844 C 70.828125 56.714844 71.335938 56.671875 71.773438 56.585938 C 72.214844 56.496094 72.605469 56.34375 72.945313 56.132813 C 73.675781 55.664063 74.042969 54.9375 74.042969 53.949219 C 74.042969 53.367188 73.886719 52.886719 73.574219 52.515625 C 73.234375 52.117188 72.785156 51.917969 72.226563 51.917969 C 71.847656 51.984375 71.464844 52.058594 71.078125 52.136719 C 70.695313 52.214844 70.332031 52.367188 69.988281 52.589844 C 69.25 53.066406 68.765625 53.957031 68.542969 55.253906 Z M 82.640625 52.53125 C 82.273438 52.269531 81.789063 52.136719 81.195313 52.136719 C 80.625 52.136719 80.09375 52.242188 79.609375 52.453125 C 78.679688 52.84375 78.050781 53.335938 77.714844 53.933594 C 77.578125 54.1875 77.511719 54.464844 77.511719 54.753906 L 77.511719 55.246094 C 77.511719 55.496094 77.558594 55.84375 77.652344 56.28125 C 77.753906 56.75 77.804688 57.226563 77.804688 57.710938 L 77.804688 57.933594 L 77.578125 57.945313 C 77.394531 57.953125 77.25 57.976563 77.140625 58.007813 C 76.992188 58.054688 76.859375 58.078125 76.75 58.078125 C 76.585938 58.078125 76.449219 58.007813 76.339844 57.875 C 76.261719 57.773438 76.175781 57.597656 76.089844 57.347656 L 76.082031 57.332031 L 76.078125 57.3125 C 76.070313 57.246094 76.050781 57.078125 76.019531 56.800781 L 75.910156 55.804688 L 75.761719 54.527344 L 75.609375 53.15625 C 75.503906 52.183594 75.417969 51.46875 75.359375 51.011719 L 75.359375 50.980469 C 75.359375 50.78125 75.4375 50.628906 75.589844 50.523438 C 75.714844 50.4375 75.886719 50.394531 76.105469 50.394531 C 76.394531 50.394531 76.617188 50.515625 76.78125 50.753906 C 76.910156 50.945313 77.015625 51.160156 77.089844 51.402344 C 77.164063 51.636719 77.210938 51.867188 77.238281 52.09375 C 77.261719 52.300781 77.28125 52.445313 77.300781 52.523438 L 77.070313 52.574219 L 76.914063 52.402344 C 78.246094 51.210938 79.898438 50.613281 81.871094 50.613281 C 82.089844 50.613281 82.316406 50.621094 82.554688 50.628906 L 82.542969 50.863281 L 82.503906 50.632813 C 82.574219 50.621094 82.660156 50.613281 82.761719 50.613281 C 82.929688 50.613281 83.078125 50.703125 83.214844 50.882813 L 83.027344 51.023438 L 83.210938 50.878906 C 83.351563 51.058594 83.421875 51.273438 83.421875 51.523438 C 83.421875 52.136719 83.222656 52.484375 82.828125 52.570313 L 82.726563 52.59375 Z M 82.914063 52.152344 L 82.777344 52.339844 L 82.726563 52.113281 C 82.878906 52.082031 82.953125 51.882813 82.953125 51.523438 C 82.953125 51.382813 82.914063 51.261719 82.84375 51.167969 L 82.839844 51.167969 L 82.839844 51.164063 C 82.796875 51.109375 82.773438 51.082031 82.761719 51.082031 C 82.6875 51.082031 82.628906 51.085938 82.582031 51.09375 L 82.558594 51.097656 L 82.535156 51.097656 C 82.300781 51.089844 82.082031 51.082031 81.871094 51.082031 C 80.019531 51.082031 78.46875 51.640625 77.226563 52.75 L 76.929688 53.015625 L 76.84375 52.625 C 76.820313 52.53125 76.796875 52.371094 76.773438 52.148438 C 76.75 51.949219 76.707031 51.746094 76.644531 51.539063 C 76.582031 51.34375 76.5 51.167969 76.394531 51.019531 C 76.324219 50.914063 76.226563 50.863281 76.105469 50.863281 C 75.921875 50.863281 75.828125 50.902344 75.828125 50.980469 L 75.59375 50.980469 L 75.824219 50.953125 C 75.882813 51.410156 75.96875 52.128906 76.074219 53.105469 L 76.226563 54.472656 L 76.375 55.753906 L 76.484375 56.75 C 76.511719 57.019531 76.53125 57.179688 76.542969 57.234375 L 76.308594 57.273438 L 76.53125 57.195313 C 76.601563 57.394531 76.65625 57.519531 76.703125 57.578125 C 76.722656 57.597656 76.734375 57.609375 76.75 57.609375 C 76.8125 57.609375 76.898438 57.59375 77.003906 57.5625 C 77.148438 57.515625 77.332031 57.488281 77.558594 57.476563 L 77.570313 57.710938 L 77.335938 57.710938 C 77.335938 57.257813 77.289063 56.816406 77.195313 56.378906 C 77.09375 55.90625 77.042969 55.53125 77.042969 55.246094 L 77.042969 54.753906 C 77.042969 54.386719 77.128906 54.035156 77.304688 53.703125 C 77.691406 53.015625 78.398438 52.453125 79.421875 52.023438 C 79.96875 51.789063 80.558594 51.667969 81.195313 51.667969 C 81.890625 51.667969 82.464844 51.828125 82.914063 52.152344 Z M 82.777344 52.339844 C 82.367188 52.050781 81.839844 51.902344 81.195313 51.902344 C 80.59375 51.902344 80.03125 52.015625 79.515625 52.238281 C 78.539063 52.648438 77.871094 53.175781 77.511719 53.820313 C 77.355469 54.113281 77.277344 54.425781 77.277344 54.753906 C 77.277344 54.8125 77.277344 54.976563 77.277344 55.246094 C 77.277344 55.515625 77.324219 55.875 77.421875 56.328125 C 77.519531 56.78125 77.570313 57.242188 77.570313 57.710938 C 77.363281 57.722656 77.199219 57.746094 77.070313 57.785156 C 76.945313 57.824219 76.835938 57.84375 76.75 57.84375 C 76.660156 57.84375 76.585938 57.804688 76.523438 57.726563 C 76.460938 57.648438 76.386719 57.496094 76.308594 57.273438 C 76.300781 57.214844 76.28125 57.046875 76.25 56.773438 C 76.222656 56.5 76.1875 56.171875 76.140625 55.78125 C 76.097656 55.390625 76.050781 54.964844 75.996094 54.5 C 75.941406 54.035156 75.890625 53.582031 75.84375 53.132813 C 75.734375 52.15625 75.652344 51.4375 75.59375 50.980469 C 75.59375 50.746094 75.765625 50.628906 76.105469 50.628906 C 76.308594 50.628906 76.472656 50.714844 76.589844 50.886719 C 76.707031 51.054688 76.796875 51.25 76.867188 51.472656 C 76.933594 51.691406 76.980469 51.90625 77.003906 52.121094 C 77.03125 52.335938 77.050781 52.488281 77.070313 52.574219 C 78.359375 51.425781 79.957031 50.847656 81.871094 50.847656 C 82.085938 50.847656 82.308594 50.855469 82.542969 50.863281 C 82.601563 50.855469 82.675781 50.847656 82.761719 50.847656 C 82.851563 50.847656 82.9375 50.90625 83.027344 51.023438 C 83.132813 51.160156 83.1875 51.328125 83.1875 51.523438 C 83.1875 52.011719 83.050781 52.28125 82.777344 52.339844 Z M 89.808594 55.378906 C 89.042969 56.585938 88.015625 57.332031 86.734375 57.617188 C 86.433594 57.679688 86.160156 57.710938 85.914063 57.710938 C 85.683594 57.710938 85.492188 57.707031 85.335938 57.703125 C 85.171875 57.699219 84.992188 57.675781 84.792969 57.632813 C 84.582031 57.589844 84.390625 57.515625 84.214844 57.417969 C 83.773438 57.167969 83.554688 56.8125 83.554688 56.351563 L 83.785156 56.351563 L 83.558594 56.402344 C 83.515625 56.210938 83.496094 55.996094 83.496094 55.757813 C 83.496094 55.519531 83.546875 55.207031 83.648438 54.828125 C 83.753906 54.445313 83.9375 54.03125 84.210938 53.59375 C 84.480469 53.15625 84.804688 52.757813 85.191406 52.390625 C 85.992188 51.621094 86.859375 51.125 87.800781 50.898438 C 88.082031 50.835938 88.34375 50.804688 88.578125 50.804688 C 88.8125 50.804688 89.019531 50.820313 89.210938 50.851563 L 89.171875 51.082031 L 89.171875 50.847656 C 89.859375 50.847656 90.316406 51.292969 90.539063 52.183594 C 90.671875 52.6875 90.75 53.382813 90.773438 54.273438 C 90.796875 55.144531 90.820313 55.816406 90.847656 56.289063 C 90.871094 56.746094 90.929688 57.160156 91.023438 57.539063 L 91.09375 57.828125 L 89.730469 57.828125 L 89.699219 57.628906 C 89.660156 57.359375 89.632813 57.121094 89.609375 56.914063 C 89.59375 56.710938 89.574219 56.523438 89.554688 56.347656 C 89.503906 55.945313 89.449219 55.597656 89.382813 55.304688 L 89.609375 55.253906 Z M 89.414063 55.128906 L 89.714844 54.652344 L 89.839844 55.203125 C 89.910156 55.511719 89.96875 55.875 90.019531 56.296875 C 90.039063 56.472656 90.058594 56.664063 90.078125 56.871094 C 90.097656 57.070313 90.125 57.300781 90.164063 57.558594 L 89.933594 57.59375 L 89.933594 57.359375 L 90.796875 57.359375 L 90.796875 57.59375 L 90.566406 57.652344 C 90.46875 57.246094 90.402344 56.800781 90.378906 56.3125 C 90.355469 55.835938 90.328125 55.160156 90.304688 54.285156 C 90.28125 53.429688 90.207031 52.769531 90.085938 52.296875 C 89.921875 51.644531 89.617188 51.316406 89.171875 51.316406 L 89.152344 51.316406 L 89.132813 51.3125 C 88.96875 51.285156 88.785156 51.273438 88.578125 51.273438 C 88.375 51.273438 88.152344 51.300781 87.910156 51.355469 C 87.054688 51.558594 86.253906 52.019531 85.511719 52.730469 C 85.15625 53.066406 84.855469 53.4375 84.609375 53.839844 C 84.363281 54.238281 84.191406 54.609375 84.101563 54.949219 C 84.007813 55.289063 83.960938 55.558594 83.960938 55.757813 C 83.960938 55.960938 83.980469 56.140625 84.015625 56.300781 L 84.019531 56.324219 L 84.019531 56.351563 C 84.019531 56.628906 84.160156 56.851563 84.441406 57.007813 C 84.578125 57.085938 84.726563 57.140625 84.886719 57.175781 C 85.058594 57.210938 85.214844 57.230469 85.351563 57.234375 C 85.5 57.242188 85.6875 57.242188 85.914063 57.242188 C 86.128906 57.242188 86.367188 57.214844 86.632813 57.160156 C 87.789063 56.902344 88.714844 56.222656 89.414063 55.128906 Z M 89.316406 52.984375 C 89.316406 52.574219 89.117188 52.371094 88.71875 52.371094 L 88.699219 52.371094 L 88.683594 52.367188 C 88.628906 52.359375 88.570313 52.355469 88.511719 52.355469 C 87.859375 52.355469 87.160156 52.679688 86.414063 53.324219 C 86.058594 53.621094 85.753906 53.957031 85.503906 54.332031 C 85.140625 54.847656 84.957031 55.300781 84.957031 55.691406 C 84.957031 56.136719 85.222656 56.398438 85.753906 56.484375 L 85.71875 56.714844 L 85.714844 56.480469 C 86.53125 56.464844 87.316406 56.085938 88.070313 55.347656 C 88.394531 55.023438 88.664063 54.671875 88.878906 54.289063 C 89.171875 53.789063 89.316406 53.351563 89.316406 52.984375 Z M 89.785156 52.984375 C 89.785156 53.4375 89.621094 53.949219 89.289063 54.519531 C 89.050781 54.9375 88.757813 55.324219 88.398438 55.683594 C 87.554688 56.507813 86.664063 56.929688 85.722656 56.949219 L 85.679688 56.949219 C 84.886719 56.820313 84.488281 56.402344 84.488281 55.691406 C 84.488281 55.203125 84.699219 54.664063 85.113281 54.070313 C 85.390625 53.660156 85.722656 53.292969 86.105469 52.96875 C 86.941406 52.25 87.742188 51.886719 88.511719 51.886719 C 88.59375 51.886719 88.671875 51.894531 88.75 51.90625 L 88.71875 52.136719 L 88.71875 51.902344 C 89.429688 51.902344 89.785156 52.261719 89.785156 52.984375 Z M 89.609375 55.253906 C 88.878906 56.402344 87.902344 57.117188 86.683594 57.390625 C 86.402344 57.449219 86.144531 57.476563 85.914063 57.476563 C 85.6875 57.476563 85.496094 57.476563 85.34375 57.46875 C 85.195313 57.464844 85.027344 57.441406 84.839844 57.402344 C 84.65625 57.363281 84.484375 57.300781 84.328125 57.214844 C 83.96875 57.007813 83.785156 56.722656 83.785156 56.351563 C 83.746094 56.175781 83.726563 55.976563 83.726563 55.757813 C 83.726563 55.539063 83.777344 55.25 83.875 54.886719 C 83.972656 54.527344 84.148438 54.136719 84.410156 53.71875 C 84.667969 53.296875 84.980469 52.914063 85.351563 52.5625 C 86.121094 51.820313 86.957031 51.34375 87.855469 51.128906 C 88.117188 51.070313 88.359375 51.039063 88.578125 51.039063 C 88.796875 51.039063 88.996094 51.054688 89.171875 51.082031 C 89.738281 51.082031 90.117188 51.46875 90.3125 52.238281 C 90.4375 52.726563 90.515625 53.40625 90.539063 54.28125 C 90.5625 55.152344 90.589844 55.828125 90.613281 56.300781 C 90.636719 56.773438 90.699219 57.203125 90.796875 57.59375 L 89.933594 57.59375 C 89.894531 57.332031 89.863281 57.097656 89.84375 56.890625 C 89.824219 56.6875 89.804688 56.496094 89.785156 56.320313 C 89.738281 55.910156 89.679688 55.554688 89.609375 55.253906 Z M 89.550781 52.984375 C 89.550781 52.417969 89.273438 52.136719 88.71875 52.136719 C 88.648438 52.128906 88.582031 52.121094 88.511719 52.121094 C 87.800781 52.121094 87.050781 52.464844 86.257813 53.144531 C 85.890625 53.457031 85.570313 53.808594 85.308594 54.199219 C 84.917969 54.753906 84.722656 55.253906 84.722656 55.691406 C 84.722656 56.269531 85.054688 56.609375 85.71875 56.714844 C 86.597656 56.695313 87.433594 56.296875 88.234375 55.515625 C 88.578125 55.175781 88.859375 54.804688 89.082031 54.40625 C 89.394531 53.867188 89.550781 53.394531 89.550781 52.984375 Z M 93.457031 56.273438 L 93.488281 53.933594 C 93.488281 53.585938 93.457031 53.289063 93.390625 53.042969 L 93.617188 52.984375 L 93.617188 53.21875 L 91.125 53.21875 L 91.082031 51.742188 L 93.515625 51.742188 L 93.515625 51.976563 L 93.28125 51.976563 L 93.28125 48.164063 L 93.292969 48.125 C 93.335938 48.003906 93.414063 47.886719 93.527344 47.773438 C 93.707031 47.589844 93.878906 47.5 94.035156 47.5 C 94.152344 47.5 94.253906 47.511719 94.34375 47.535156 C 94.464844 47.570313 94.582031 47.671875 94.691406 47.835938 L 94.714844 47.871094 L 94.722656 47.910156 C 94.886719 48.574219 94.964844 49.5625 94.964844 50.878906 C 94.964844 51.191406 94.980469 51.503906 95.007813 51.808594 L 94.773438 51.828125 L 94.746094 51.597656 C 95.066406 51.558594 95.390625 51.535156 95.710938 51.535156 L 96.472656 51.535156 C 96.648438 51.535156 96.808594 51.527344 96.957031 51.507813 L 97.230469 51.476563 L 97.164063 53.035156 L 94.796875 52.96875 L 94.804688 52.738281 L 95.039063 52.734375 L 95.113281 57.933594 L 94.972656 58 C 94.765625 58.089844 94.582031 58.136719 94.421875 58.136719 C 93.78125 58.136719 93.457031 57.515625 93.457031 56.277344 Z M 93.925781 56.277344 C 93.925781 57.203125 94.09375 57.667969 94.421875 57.667969 C 94.515625 57.667969 94.636719 57.636719 94.78125 57.570313 L 94.878906 57.785156 L 94.644531 57.789063 L 94.566406 52.496094 L 96.945313 52.5625 L 96.941406 52.796875 L 96.707031 52.785156 L 96.75 51.730469 L 96.984375 51.742188 L 97.011719 51.972656 C 96.847656 51.996094 96.667969 52.003906 96.472656 52.003906 L 95.710938 52.003906 C 95.410156 52.003906 95.105469 52.023438 94.804688 52.0625 L 94.5625 52.089844 L 94.542969 51.851563 C 94.511719 51.53125 94.496094 51.207031 94.496094 50.878906 C 94.496094 49.601563 94.421875 48.648438 94.269531 48.023438 L 94.496094 47.96875 L 94.300781 48.097656 C 94.257813 48.027344 94.226563 47.992188 94.214844 47.988281 C 94.164063 47.972656 94.105469 47.96875 94.035156 47.96875 C 94.007813 47.96875 93.949219 48.011719 93.859375 48.101563 C 93.796875 48.164063 93.757813 48.222656 93.738281 48.273438 L 93.515625 48.199219 L 93.75 48.199219 L 93.75 52.210938 L 91.320313 52.210938 L 91.320313 51.976563 L 91.554688 51.96875 L 91.585938 52.980469 L 91.351563 52.984375 L 91.351563 52.75 L 93.800781 52.75 L 93.84375 52.925781 C 93.917969 53.210938 93.957031 53.546875 93.957031 53.9375 L 93.925781 56.28125 Z M 93.691406 56.277344 L 93.722656 53.9375 C 93.722656 53.566406 93.6875 53.25 93.617188 52.984375 L 91.351563 52.984375 L 91.320313 51.976563 L 93.515625 51.976563 L 93.515625 48.199219 C 93.546875 48.113281 93.605469 48.027344 93.691406 47.9375 C 93.828125 47.800781 93.945313 47.734375 94.035156 47.734375 C 94.128906 47.734375 94.210938 47.742188 94.277344 47.761719 C 94.347656 47.78125 94.417969 47.851563 94.496094 47.96875 C 94.652344 48.609375 94.730469 49.582031 94.730469 50.878906 C 94.730469 51.199219 94.746094 51.515625 94.773438 51.828125 C 95.085938 51.789063 95.398438 51.769531 95.710938 51.769531 C 95.710938 51.769531 95.964844 51.769531 96.472656 51.769531 C 96.65625 51.769531 96.828125 51.761719 96.984375 51.742188 L 96.941406 52.796875 L 94.804688 52.738281 L 94.878906 57.785156 C 94.703125 57.863281 94.550781 57.902344 94.421875 57.902344 C 93.9375 57.902344 93.691406 57.359375 93.691406 56.277344 Z M 97.671875 54.902344 C 97.671875 53.671875 98.203125 52.679688 99.261719 51.929688 C 100.085938 51.351563 101.074219 51 102.226563 50.878906 L 102.660156 50.878906 C 102.902344 50.878906 103.214844 50.945313 103.601563 51.082031 C 104.464844 51.378906 105.058594 51.902344 105.378906 52.660156 C 105.507813 52.960938 105.574219 53.222656 105.574219 53.445313 C 105.574219 53.644531 105.566406 53.789063 105.554688 53.878906 L 105.324219 53.847656 L 105.558594 53.847656 C 105.558594 55.144531 105.0625 56.167969 104.074219 56.917969 C 103.175781 57.59375 102.054688 57.929688 100.714844 57.929688 C 99.726563 57.929688 98.976563 57.695313 98.457031 57.226563 C 97.933594 56.75 97.671875 55.976563 97.671875 54.902344 Z M 98.140625 54.902344 C 98.140625 55.835938 98.351563 56.496094 98.773438 56.878906 C 99.203125 57.269531 99.847656 57.460938 100.714844 57.460938 C 101.949219 57.460938 102.976563 57.15625 103.792969 56.542969 C 104.65625 55.890625 105.089844 54.992188 105.089844 53.847656 L 105.089844 53.820313 C 105.101563 53.75 105.105469 53.625 105.105469 53.445313 C 105.105469 53.289063 105.050781 53.085938 104.949219 52.84375 C 104.683594 52.214844 104.183594 51.773438 103.445313 51.523438 C 103.109375 51.40625 102.847656 51.347656 102.660156 51.347656 L 102.25 51.347656 L 102.25 51.113281 L 102.277344 51.34375 C 101.203125 51.457031 100.289063 51.78125 99.535156 52.3125 C 98.605469 52.96875 98.140625 53.832031 98.140625 54.902344 Z M 99.148438 55.253906 C 99.148438 55.773438 99.277344 56.121094 99.527344 56.289063 C 99.730469 56.417969 100.097656 56.480469 100.628906 56.480469 C 101.1875 56.480469 101.679688 56.441406 102.101563 56.355469 C 102.515625 56.273438 102.878906 56.132813 103.195313 55.933594 C 103.855469 55.511719 104.183594 54.851563 104.183594 53.949219 C 104.183594 53.421875 104.046875 52.996094 103.769531 52.667969 C 103.476563 52.324219 103.085938 52.152344 102.601563 52.152344 L 102.601563 51.917969 L 102.644531 52.148438 C 102.265625 52.214844 101.882813 52.289063 101.5 52.367188 C 101.144531 52.4375 100.808594 52.578125 100.492188 52.785156 C 99.808594 53.226563 99.359375 54.0625 99.144531 55.292969 L 98.914063 55.253906 Z M 98.679688 55.253906 L 98.679688 55.234375 L 98.683594 55.214844 C 98.921875 53.847656 99.4375 52.910156 100.234375 52.394531 C 100.601563 52.152344 100.992188 51.992188 101.40625 51.90625 C 101.792969 51.828125 102.179688 51.753906 102.5625 51.6875 L 102.582031 51.683594 L 102.601563 51.683594 C 103.230469 51.683594 103.738281 51.910156 104.128906 52.367188 C 104.476563 52.78125 104.652344 53.308594 104.652344 53.949219 C 104.652344 55.023438 104.25 55.8125 103.445313 56.328125 C 103.078125 56.558594 102.660156 56.722656 102.195313 56.8125 C 101.742188 56.90625 101.21875 56.949219 100.628906 56.949219 C 100.007813 56.949219 99.554688 56.859375 99.269531 56.675781 C 98.878906 56.417969 98.679688 55.941406 98.679688 55.253906 Z M 97.90625 54.902344 C 97.90625 53.75 98.402344 52.824219 99.398438 52.121094 C 100.1875 51.566406 101.140625 51.230469 102.25 51.113281 C 102.308594 51.113281 102.445313 51.113281 102.660156 51.113281 C 102.875 51.113281 103.164063 51.175781 103.523438 51.304688 C 104.324219 51.574219 104.871094 52.058594 105.164063 52.75 C 105.28125 53.023438 105.339844 53.257813 105.339844 53.445313 C 105.339844 53.636719 105.332031 53.769531 105.324219 53.847656 C 105.324219 55.066406 104.859375 56.027344 103.933594 56.730469 C 103.074219 57.375 102.003906 57.695313 100.714844 57.695313 C 99.789063 57.695313 99.089844 57.480469 98.617188 57.054688 C 98.140625 56.625 97.90625 55.90625 97.90625 54.902344 Z M 98.914063 55.253906 C 98.914063 55.859375 99.078125 56.269531 99.398438 56.480469 C 99.640625 56.636719 100.050781 56.714844 100.628906 56.714844 C 101.203125 56.714844 101.710938 56.671875 102.148438 56.585938 C 102.589844 56.496094 102.976563 56.34375 103.320313 56.132813 C 104.050781 55.664063 104.417969 54.9375 104.417969 53.949219 C 104.417969 53.367188 104.261719 52.886719 103.949219 52.515625 C 103.605469 52.117188 103.160156 51.917969 102.601563 51.917969 C 102.222656 51.984375 101.839844 52.058594 101.453125 52.136719 C 101.070313 52.214844 100.707031 52.367188 100.363281 52.589844 C 99.621094 53.066406 99.140625 53.957031 98.914063 55.253906 Z M 113.015625 52.53125 C 112.648438 52.269531 112.164063 52.136719 111.570313 52.136719 C 111 52.136719 110.46875 52.242188 109.980469 52.453125 C 109.054688 52.84375 108.421875 53.335938 108.089844 53.933594 C 107.953125 54.1875 107.882813 54.464844 107.882813 54.753906 L 107.882813 55.246094 C 107.882813 55.496094 107.929688 55.84375 108.027344 56.28125 C 108.125 56.75 108.175781 57.226563 108.175781 57.710938 L 108.175781 57.933594 L 107.953125 57.945313 C 107.769531 57.953125 107.621094 57.976563 107.515625 58.007813 C 107.363281 58.054688 107.234375 58.078125 107.125 58.078125 C 106.960938 58.078125 106.824219 58.007813 106.714844 57.875 C 106.632813 57.773438 106.550781 57.597656 106.464844 57.347656 L 106.457031 57.332031 L 106.453125 57.3125 C 106.441406 57.246094 106.421875 57.078125 106.394531 56.800781 L 106.285156 55.804688 L 106.136719 54.527344 L 105.984375 53.15625 C 105.875 52.183594 105.792969 51.46875 105.734375 51.011719 L 105.734375 50.980469 C 105.734375 50.78125 105.808594 50.628906 105.964844 50.523438 C 106.089844 50.4375 106.261719 50.394531 106.480469 50.394531 C 106.765625 50.394531 106.992188 50.515625 107.15625 50.753906 C 107.285156 50.945313 107.390625 51.160156 107.464844 51.402344 C 107.535156 51.636719 107.585938 51.867188 107.613281 52.09375 C 107.636719 52.300781 107.65625 52.445313 107.675781 52.523438 L 107.445313 52.574219 L 107.289063 52.402344 C 108.621094 51.210938 110.273438 50.613281 112.246094 50.613281 C 112.460938 50.613281 112.691406 50.621094 112.925781 50.628906 L 112.917969 50.863281 L 112.878906 50.632813 C 112.949219 50.621094 113.035156 50.613281 113.136719 50.613281 C 113.304688 50.613281 113.453125 50.703125 113.585938 50.882813 L 113.402344 51.023438 L 113.585938 50.878906 C 113.726563 51.058594 113.796875 51.273438 113.796875 51.523438 C 113.796875 52.136719 113.597656 52.484375 113.199219 52.570313 L 113.101563 52.59375 Z M 113.289063 52.152344 L 113.152344 52.339844 L 113.101563 52.113281 C 113.253906 52.082031 113.328125 51.882813 113.328125 51.523438 C 113.328125 51.382813 113.289063 51.261719 113.214844 51.167969 L 113.214844 51.164063 C 113.171875 51.109375 113.148438 51.082031 113.136719 51.082031 C 113.0625 51.082031 113 51.085938 112.957031 51.09375 L 112.933594 51.097656 L 112.90625 51.097656 C 112.675781 51.089844 112.457031 51.082031 112.246094 51.082031 C 110.390625 51.082031 108.84375 51.640625 107.601563 52.75 L 107.304688 53.015625 L 107.21875 52.625 C 107.195313 52.53125 107.171875 52.371094 107.148438 52.148438 C 107.125 51.949219 107.082031 51.746094 107.015625 51.539063 C 106.957031 51.34375 106.875 51.167969 106.769531 51.019531 C 106.699219 50.914063 106.601563 50.863281 106.480469 50.863281 C 106.292969 50.863281 106.203125 50.902344 106.203125 50.980469 L 105.96875 50.980469 L 106.199219 50.953125 C 106.257813 51.410156 106.339844 52.128906 106.449219 53.105469 L 106.601563 54.472656 L 106.75 55.753906 L 106.859375 56.75 C 106.886719 57.019531 106.90625 57.179688 106.914063 57.234375 L 106.683594 57.273438 L 106.90625 57.195313 C 106.976563 57.394531 107.03125 57.519531 107.078125 57.578125 C 107.09375 57.597656 107.109375 57.609375 107.125 57.609375 C 107.1875 57.609375 107.273438 57.59375 107.375 57.5625 C 107.523438 57.515625 107.707031 57.488281 107.933594 57.476563 L 107.941406 57.710938 L 107.707031 57.710938 C 107.707031 57.257813 107.660156 56.816406 107.566406 56.378906 C 107.46875 55.90625 107.417969 55.53125 107.417969 55.246094 L 107.417969 54.753906 C 107.417969 54.386719 107.503906 54.035156 107.679688 53.703125 C 108.066406 53.015625 108.773438 52.453125 109.796875 52.023438 C 110.34375 51.789063 110.933594 51.667969 111.570313 51.667969 C 112.265625 51.667969 112.835938 51.828125 113.289063 52.152344 Z M 113.152344 52.339844 C 112.742188 52.050781 112.214844 51.902344 111.570313 51.902344 C 110.964844 51.902344 110.40625 52.015625 109.890625 52.238281 C 108.914063 52.648438 108.246094 53.175781 107.882813 53.820313 C 107.726563 54.113281 107.648438 54.425781 107.648438 54.753906 C 107.648438 54.8125 107.648438 54.976563 107.648438 55.246094 C 107.648438 55.515625 107.699219 55.875 107.796875 56.328125 C 107.894531 56.78125 107.941406 57.242188 107.941406 57.710938 C 107.738281 57.722656 107.574219 57.746094 107.445313 57.785156 C 107.320313 57.824219 107.210938 57.84375 107.125 57.84375 C 107.035156 57.84375 106.960938 57.804688 106.898438 57.726563 C 106.832031 57.648438 106.761719 57.496094 106.683594 57.273438 C 106.675781 57.214844 106.65625 57.046875 106.625 56.773438 C 106.597656 56.5 106.558594 56.171875 106.515625 55.78125 C 106.472656 55.390625 106.421875 54.964844 106.371094 54.5 C 106.316406 54.035156 106.265625 53.582031 106.214844 53.132813 C 106.109375 52.15625 106.027344 51.4375 105.96875 50.980469 C 105.96875 50.746094 106.136719 50.628906 106.480469 50.628906 C 106.683594 50.628906 106.84375 50.714844 106.960938 50.886719 C 107.078125 51.054688 107.171875 51.25 107.242188 51.472656 C 107.308594 51.691406 107.355469 51.90625 107.378906 52.121094 C 107.402344 52.335938 107.425781 52.488281 107.445313 52.574219 C 108.734375 51.425781 110.332031 50.847656 112.246094 50.847656 C 112.460938 50.847656 112.683594 50.855469 112.917969 50.863281 C 112.976563 50.855469 113.050781 50.847656 113.136719 50.847656 C 113.226563 50.847656 113.3125 50.90625 113.402344 51.023438 C 113.507813 51.160156 113.5625 51.328125 113.5625 51.523438 C 113.5625 52.011719 113.425781 52.28125 113.152344 52.339844 Z M 121.5625 51.59375 C 122.914063 51.125 124.085938 50.894531 125.074219 50.894531 C 126.390625 50.894531 127.277344 51.25 127.730469 51.96875 C 127.941406 52.308594 128.046875 52.679688 128.046875 53.074219 C 128.046875 53.605469 127.882813 54.144531 127.550781 54.699219 C 127.230469 55.238281 126.808594 55.726563 126.277344 56.164063 C 125.0625 57.160156 123.589844 57.777344 121.859375 58.015625 L 121.828125 57.785156 L 122.0625 57.785156 C 122.0625 57.890625 122.066406 58.0625 122.070313 58.300781 L 122.085938 59.097656 L 122.097656 60.035156 C 122.105469 60.363281 122.109375 60.679688 122.121094 60.980469 C 122.148438 61.722656 122.171875 62.144531 122.183594 62.246094 C 122.199219 62.363281 122.207031 62.460938 122.207031 62.539063 C 122.207031 62.859375 122.101563 63.105469 121.882813 63.273438 C 121.6875 63.425781 121.433594 63.503906 121.125 63.503906 L 120.75 63.503906 L 120.507813 51.4375 L 120.554688 51.375 C 120.691406 51.175781 120.878906 51.082031 121.113281 51.097656 C 121.304688 51.113281 121.464844 51.167969 121.589844 51.265625 C 121.722656 51.367188 121.816406 51.535156 121.867188 51.765625 L 121.636719 51.816406 Z M 121.714844 52.035156 L 121.464844 52.121094 L 121.410156 51.867188 C 121.382813 51.746094 121.347656 51.667969 121.304688 51.632813 C 121.253906 51.59375 121.179688 51.570313 121.082031 51.566406 C 121.023438 51.5625 120.976563 51.585938 120.9375 51.640625 L 120.746094 51.507813 L 120.980469 51.503906 L 121.214844 63.265625 L 120.980469 63.269531 L 120.980469 63.035156 L 121.125 63.035156 C 121.324219 63.035156 121.480469 62.992188 121.597656 62.902344 C 121.691406 62.828125 121.738281 62.707031 121.738281 62.539063 C 121.738281 62.480469 121.734375 62.40625 121.71875 62.308594 C 121.703125 62.191406 121.683594 61.753906 121.652344 60.996094 C 121.644531 60.691406 121.636719 60.375 121.628906 60.042969 L 121.617188 59.105469 L 121.601563 58.308594 C 121.597656 58.066406 121.59375 57.894531 121.59375 57.785156 L 121.59375 57.582031 L 121.796875 57.550781 C 123.441406 57.324219 124.835938 56.742188 125.980469 55.804688 C 126.464844 55.402344 126.855469 54.953125 127.148438 54.460938 C 127.433594 53.980469 127.578125 53.519531 127.578125 53.074219 C 127.578125 52.765625 127.496094 52.480469 127.335938 52.21875 C 126.972656 51.648438 126.21875 51.359375 125.074219 51.359375 C 124.136719 51.359375 123.015625 51.585938 121.714844 52.035156 Z M 125.804688 52.535156 C 125.515625 52.386719 125.207031 52.3125 124.878906 52.3125 C 124.527344 52.3125 124.179688 52.34375 123.832031 52.410156 C 123.074219 52.554688 122.515625 52.871094 122.164063 53.355469 L 121.972656 53.21875 L 122.167969 53.351563 C 122.019531 53.566406 121.945313 53.832031 121.945313 54.15625 L 121.945313 56.804688 L 121.710938 56.804688 L 121.660156 56.574219 C 123.628906 56.136719 125.015625 55.53125 125.820313 54.761719 C 126.261719 54.347656 126.480469 53.933594 126.480469 53.511719 C 126.480469 53.089844 126.253906 52.765625 125.804688 52.535156 Z M 126.015625 52.117188 C 126.636719 52.433594 126.949219 52.898438 126.949219 53.511719 C 126.949219 54.066406 126.679688 54.597656 126.144531 55.101563 C 125.273438 55.929688 123.8125 56.574219 121.761719 57.03125 L 121.476563 57.097656 L 121.476563 54.15625 C 121.476563 53.738281 121.578125 53.378906 121.78125 53.085938 L 121.785156 53.082031 C 122.210938 52.496094 122.863281 52.117188 123.746094 51.949219 C 124.121094 51.878906 124.5 51.84375 124.878906 51.84375 C 125.28125 51.84375 125.660156 51.9375 126.015625 52.117188 Z M 121.636719 51.816406 C 122.964844 51.355469 124.109375 51.128906 125.074219 51.128906 C 126.304688 51.128906 127.125 51.449219 127.535156 52.09375 C 127.71875 52.394531 127.8125 52.722656 127.8125 53.074219 C 127.8125 53.5625 127.660156 54.0625 127.351563 54.582031 C 127.042969 55.097656 126.636719 55.566406 126.128906 55.984375 C 124.949219 56.949219 123.515625 57.550781 121.828125 57.785156 C 121.828125 57.890625 121.832031 58.066406 121.835938 58.304688 C 121.839844 58.542969 121.84375 58.808594 121.851563 59.101563 C 121.855469 59.394531 121.859375 59.707031 121.863281 60.039063 C 121.871094 60.371094 121.875 60.6875 121.886719 60.988281 C 121.914063 61.738281 121.9375 62.167969 121.953125 62.277344 C 121.96875 62.382813 121.972656 62.472656 121.972656 62.539063 C 121.972656 62.785156 121.894531 62.964844 121.738281 63.089844 C 121.585938 63.210938 121.378906 63.269531 121.125 63.269531 C 121.078125 63.269531 121.027344 63.269531 120.980469 63.269531 L 120.746094 51.507813 C 120.832031 51.378906 120.949219 51.324219 121.097656 51.332031 C 121.242188 51.34375 121.359375 51.378906 121.449219 51.449219 C 121.535156 51.515625 121.597656 51.640625 121.636719 51.816406 Z M 125.910156 52.328125 C 125.589844 52.160156 125.246094 52.078125 124.878906 52.078125 C 124.511719 52.078125 124.148438 52.113281 123.789063 52.179688 C 122.96875 52.335938 122.363281 52.683594 121.972656 53.21875 C 121.796875 53.472656 121.710938 53.785156 121.710938 54.15625 C 121.710938 54.195313 121.710938 54.234375 121.710938 54.273438 L 121.710938 56.804688 C 123.71875 56.355469 125.144531 55.730469 125.984375 54.929688 C 126.472656 54.472656 126.714844 54 126.714844 53.511719 C 126.714844 52.996094 126.445313 52.601563 125.910156 52.328125 Z M 134.519531 55.378906 C 133.753906 56.585938 132.730469 57.332031 131.449219 57.617188 C 131.148438 57.679688 130.875 57.710938 130.628906 57.710938 C 130.398438 57.710938 130.203125 57.707031 130.050781 57.703125 C 129.886719 57.699219 129.703125 57.675781 129.503906 57.632813 C 129.296875 57.589844 129.101563 57.515625 128.925781 57.417969 C 128.484375 57.167969 128.265625 56.8125 128.265625 56.351563 L 128.5 56.351563 L 128.269531 56.402344 C 128.230469 56.210938 128.207031 55.996094 128.207031 55.757813 C 128.207031 55.519531 128.257813 55.207031 128.363281 54.828125 C 128.464844 54.445313 128.652344 54.03125 128.921875 53.59375 C 129.191406 53.15625 129.519531 52.757813 129.90625 52.390625 C 130.703125 51.621094 131.574219 51.125 132.511719 50.898438 C 132.796875 50.835938 133.054688 50.804688 133.292969 50.804688 C 133.523438 50.804688 133.734375 50.820313 133.921875 50.851563 L 133.882813 51.082031 L 133.882813 50.847656 C 134.570313 50.847656 135.027344 51.292969 135.253906 52.183594 C 135.382813 52.6875 135.460938 53.382813 135.484375 54.273438 C 135.511719 55.144531 135.535156 55.816406 135.558594 56.289063 C 135.582031 56.746094 135.640625 57.160156 135.734375 57.539063 L 135.808594 57.828125 L 134.441406 57.828125 L 134.414063 57.628906 C 134.375 57.359375 134.34375 57.121094 134.324219 56.914063 C 134.304688 56.710938 134.285156 56.523438 134.265625 56.347656 C 134.21875 55.945313 134.160156 55.597656 134.09375 55.304688 L 134.324219 55.253906 Z M 134.125 55.128906 L 134.425781 54.652344 L 134.550781 55.203125 C 134.621094 55.511719 134.679688 55.875 134.730469 56.296875 C 134.75 56.472656 134.769531 56.664063 134.789063 56.871094 C 134.808594 57.070313 134.839844 57.300781 134.875 57.558594 L 134.644531 57.59375 L 134.644531 57.359375 L 135.507813 57.359375 L 135.507813 57.59375 L 135.28125 57.652344 C 135.179688 57.246094 135.117188 56.800781 135.089844 56.3125 C 135.066406 55.835938 135.042969 55.160156 135.019531 54.285156 C 134.996094 53.429688 134.921875 52.769531 134.796875 52.296875 C 134.632813 51.644531 134.328125 51.316406 133.882813 51.316406 L 133.863281 51.316406 L 133.84375 51.3125 C 133.683594 51.285156 133.5 51.273438 133.292969 51.273438 C 133.089844 51.273438 132.867188 51.300781 132.621094 51.355469 C 131.765625 51.558594 130.96875 52.019531 130.226563 52.730469 C 129.871094 53.066406 129.570313 53.4375 129.320313 53.839844 C 129.074219 54.238281 128.90625 54.609375 128.8125 54.949219 C 128.722656 55.289063 128.675781 55.558594 128.675781 55.757813 C 128.675781 55.960938 128.691406 56.140625 128.726563 56.300781 L 128.734375 56.324219 L 128.734375 56.351563 C 128.734375 56.628906 128.875 56.851563 129.15625 57.007813 C 129.292969 57.085938 129.441406 57.140625 129.601563 57.175781 C 129.773438 57.210938 129.929688 57.230469 130.066406 57.234375 C 130.214844 57.242188 130.402344 57.242188 130.628906 57.242188 C 130.84375 57.242188 131.082031 57.214844 131.34375 57.160156 C 132.5 56.902344 133.429688 56.222656 134.125 55.128906 Z M 134.03125 52.984375 C 134.03125 52.574219 133.832031 52.371094 133.429688 52.371094 L 133.414063 52.371094 L 133.398438 52.367188 C 133.339844 52.359375 133.28125 52.355469 133.226563 52.355469 C 132.570313 52.355469 131.871094 52.679688 131.125 53.324219 C 130.769531 53.621094 130.464844 53.957031 130.214844 54.332031 C 129.851563 54.847656 129.671875 55.300781 129.671875 55.691406 C 129.671875 56.136719 129.9375 56.398438 130.46875 56.484375 L 130.429688 56.714844 L 130.425781 56.480469 C 131.242188 56.464844 132.027344 56.085938 132.785156 55.347656 C 133.109375 55.023438 133.378906 54.671875 133.59375 54.289063 C 133.882813 53.789063 134.03125 53.351563 134.03125 52.984375 Z M 134.5 52.984375 C 134.5 53.4375 134.332031 53.949219 134 54.519531 C 133.765625 54.9375 133.46875 55.324219 133.109375 55.683594 C 132.265625 56.507813 131.375 56.929688 130.4375 56.949219 L 130.394531 56.949219 C 129.597656 56.820313 129.203125 56.402344 129.203125 55.691406 C 129.203125 55.203125 129.410156 54.664063 129.828125 54.070313 C 130.101563 53.660156 130.433594 53.292969 130.820313 52.96875 C 131.652344 52.25 132.457031 51.886719 133.226563 51.886719 C 133.304688 51.886719 133.382813 51.894531 133.464844 51.90625 L 133.429688 52.136719 L 133.429688 51.902344 C 134.144531 51.902344 134.5 52.261719 134.5 52.984375 Z M 134.324219 55.253906 C 133.589844 56.402344 132.617188 57.117188 131.398438 57.390625 C 131.113281 57.449219 130.859375 57.476563 130.628906 57.476563 C 130.398438 57.476563 130.210938 57.476563 130.058594 57.46875 C 129.90625 57.464844 129.738281 57.441406 129.554688 57.402344 C 129.367188 57.363281 129.195313 57.300781 129.042969 57.214844 C 128.679688 57.007813 128.5 56.722656 128.5 56.351563 C 128.460938 56.175781 128.441406 55.976563 128.441406 55.757813 C 128.441406 55.539063 128.488281 55.25 128.585938 54.886719 C 128.683594 54.527344 128.863281 54.136719 129.121094 53.71875 C 129.378906 53.296875 129.695313 52.914063 130.066406 52.5625 C 130.835938 51.820313 131.667969 51.34375 132.566406 51.128906 C 132.832031 51.070313 133.070313 51.039063 133.292969 51.039063 C 133.511719 51.039063 133.707031 51.054688 133.882813 51.082031 C 134.449219 51.082031 134.832031 51.46875 135.023438 52.238281 C 135.152344 52.726563 135.226563 53.40625 135.253906 54.28125 C 135.277344 55.152344 135.300781 55.828125 135.324219 56.300781 C 135.351563 56.773438 135.410156 57.203125 135.507813 57.59375 L 134.644531 57.59375 C 134.605469 57.332031 134.578125 57.097656 134.558594 56.890625 C 134.539063 56.6875 134.519531 56.496094 134.5 56.320313 C 134.449219 55.910156 134.390625 55.554688 134.324219 55.253906 Z M 134.265625 52.984375 C 134.265625 52.417969 133.988281 52.136719 133.429688 52.136719 C 133.363281 52.128906 133.292969 52.121094 133.226563 52.121094 C 132.511719 52.121094 131.761719 52.464844 130.972656 53.144531 C 130.601563 53.457031 130.285156 53.808594 130.019531 54.199219 C 129.632813 54.753906 129.4375 55.253906 129.4375 55.691406 C 129.4375 56.269531 129.769531 56.609375 130.429688 56.714844 C 131.308594 56.695313 132.148438 56.296875 132.949219 55.515625 C 133.289063 55.175781 133.570313 54.804688 133.796875 54.40625 C 134.109375 53.867188 134.265625 53.394531 134.265625 52.984375 Z M 138.171875 56.273438 L 138.199219 53.933594 C 138.199219 53.585938 138.167969 53.289063 138.105469 53.042969 L 138.332031 52.984375 L 138.332031 53.21875 L 135.835938 53.21875 L 135.792969 51.742188 L 138.230469 51.742188 L 138.230469 51.976563 L 137.996094 51.976563 L 137.996094 48.164063 L 138.007813 48.125 C 138.046875 48.003906 138.125 47.886719 138.238281 47.773438 C 138.421875 47.589844 138.589844 47.5 138.75 47.5 C 138.863281 47.5 138.964844 47.511719 139.054688 47.535156 C 139.179688 47.570313 139.292969 47.671875 139.40625 47.835938 L 139.425781 47.871094 L 139.4375 47.910156 C 139.597656 48.574219 139.679688 49.5625 139.679688 50.878906 C 139.679688 51.191406 139.691406 51.503906 139.722656 51.808594 L 139.488281 51.828125 L 139.457031 51.597656 C 139.78125 51.558594 140.101563 51.535156 140.425781 51.535156 L 141.183594 51.535156 C 141.359375 51.535156 141.523438 51.527344 141.667969 51.507813 L 141.941406 51.476563 L 141.878906 53.035156 L 139.511719 52.96875 L 139.515625 52.738281 L 139.75 52.734375 L 139.828125 57.933594 L 139.683594 58 C 139.480469 58.089844 139.296875 58.136719 139.136719 58.136719 C 138.492188 58.136719 138.171875 57.515625 138.171875 56.277344 Z M 138.640625 56.277344 C 138.640625 57.203125 138.804688 57.667969 139.136719 57.667969 C 139.230469 57.667969 139.351563 57.636719 139.496094 57.570313 L 139.589844 57.785156 L 139.355469 57.789063 L 139.28125 52.496094 L 141.660156 52.5625 L 141.652344 52.796875 L 141.417969 52.785156 L 141.464844 51.730469 L 141.695313 51.742188 L 141.726563 51.972656 C 141.558594 51.996094 141.378906 52.003906 141.183594 52.003906 L 140.425781 52.003906 C 140.121094 52.003906 139.820313 52.023438 139.515625 52.0625 L 139.277344 52.089844 L 139.253906 51.851563 C 139.226563 51.53125 139.210938 51.207031 139.210938 50.878906 C 139.210938 49.601563 139.132813 48.648438 138.980469 48.023438 L 139.210938 47.96875 L 139.015625 48.097656 C 138.96875 48.027344 138.9375 47.992188 138.925781 47.988281 C 138.878906 47.972656 138.820313 47.96875 138.75 47.96875 C 138.722656 47.96875 138.660156 48.011719 138.570313 48.101563 C 138.507813 48.164063 138.46875 48.222656 138.453125 48.273438 L 138.230469 48.199219 L 138.464844 48.199219 L 138.464844 52.210938 L 136.035156 52.210938 L 136.035156 51.976563 L 136.269531 51.96875 L 136.296875 52.980469 L 136.0625 52.984375 L 136.0625 52.75 L 138.511719 52.75 L 138.558594 52.925781 C 138.632813 53.210938 138.667969 53.546875 138.667969 53.9375 L 138.640625 56.28125 Z M 138.40625 56.277344 L 138.433594 53.9375 C 138.433594 53.566406 138.398438 53.25 138.332031 52.984375 L 136.0625 52.984375 L 136.035156 51.976563 L 138.230469 51.976563 L 138.230469 48.199219 C 138.257813 48.113281 138.316406 48.027344 138.40625 47.9375 C 138.542969 47.800781 138.65625 47.734375 138.75 47.734375 C 138.839844 47.734375 138.921875 47.742188 138.992188 47.761719 C 139.058594 47.78125 139.132813 47.851563 139.210938 47.96875 C 139.367188 48.609375 139.445313 49.582031 139.445313 50.878906 C 139.445313 51.199219 139.457031 51.515625 139.488281 51.828125 C 139.800781 51.789063 140.113281 51.769531 140.425781 51.769531 C 140.425781 51.769531 140.679688 51.769531 141.183594 51.769531 C 141.371094 51.769531 141.542969 51.761719 141.695313 51.742188 L 141.652344 52.796875 L 139.515625 52.738281 L 139.589844 57.785156 C 139.414063 57.863281 139.261719 57.902344 139.136719 57.902344 C 138.648438 57.902344 138.40625 57.359375 138.40625 56.277344 Z M 144.226563 56.273438 L 144.257813 53.933594 C 144.257813 53.585938 144.226563 53.289063 144.164063 53.042969 L 144.390625 52.984375 L 144.390625 53.21875 L 141.894531 53.21875 L 141.851563 51.742188 L 144.285156 51.742188 L 144.285156 51.976563 L 144.054688 51.976563 L 144.054688 48.164063 L 144.066406 48.125 C 144.105469 48.003906 144.183594 47.886719 144.296875 47.773438 C 144.480469 47.589844 144.648438 47.5 144.804688 47.5 C 144.921875 47.5 145.023438 47.511719 145.113281 47.535156 C 145.234375 47.570313 145.351563 47.671875 145.460938 47.835938 L 145.484375 47.871094 L 145.496094 47.910156 C 145.65625 48.574219 145.734375 49.5625 145.734375 50.878906 C 145.734375 51.191406 145.75 51.503906 145.777344 51.808594 L 145.546875 51.828125 L 145.515625 51.597656 C 145.839844 51.558594 146.160156 51.535156 146.480469 51.535156 L 147.242188 51.535156 C 147.417969 51.535156 147.578125 51.527344 147.726563 51.507813 L 148 51.476563 L 147.933594 53.035156 L 145.566406 52.96875 L 145.574219 52.738281 L 145.808594 52.734375 L 145.882813 57.933594 L 145.742188 58 C 145.535156 58.089844 145.355469 58.136719 145.195313 58.136719 C 144.550781 58.136719 144.226563 57.515625 144.226563 56.277344 Z M 144.695313 56.277344 C 144.695313 57.203125 144.863281 57.667969 145.195313 57.667969 C 145.289063 57.667969 145.40625 57.636719 145.550781 57.570313 L 145.648438 57.785156 L 145.414063 57.789063 L 145.335938 52.496094 L 147.71875 52.5625 L 147.710938 52.796875 L 147.476563 52.785156 L 147.519531 51.730469 L 147.753906 51.742188 L 147.785156 51.972656 C 147.617188 51.996094 147.4375 52.003906 147.242188 52.003906 L 146.480469 52.003906 C 146.179688 52.003906 145.875 52.023438 145.574219 52.0625 L 145.335938 52.089844 L 145.3125 51.851563 C 145.28125 51.53125 145.265625 51.207031 145.265625 50.878906 C 145.265625 49.601563 145.191406 48.648438 145.039063 48.023438 L 145.265625 47.96875 L 145.074219 48.097656 C 145.027344 48.027344 144.996094 47.992188 144.984375 47.988281 C 144.9375 47.972656 144.878906 47.96875 144.804688 47.96875 C 144.777344 47.96875 144.71875 48.011719 144.628906 48.101563 C 144.566406 48.164063 144.527344 48.222656 144.507813 48.273438 L 144.285156 48.199219 L 144.519531 48.199219 L 144.519531 52.210938 L 142.09375 52.210938 L 142.09375 51.976563 L 142.328125 51.96875 L 142.355469 52.980469 L 142.121094 52.984375 L 142.121094 52.75 L 144.570313 52.75 L 144.617188 52.925781 C 144.6875 53.210938 144.726563 53.546875 144.726563 53.9375 L 144.695313 56.28125 Z M 144.460938 56.277344 L 144.492188 53.9375 C 144.492188 53.566406 144.457031 53.25 144.390625 52.984375 L 142.121094 52.984375 L 142.09375 51.976563 L 144.285156 51.976563 L 144.285156 48.199219 C 144.316406 48.113281 144.375 48.027344 144.460938 47.9375 C 144.597656 47.800781 144.714844 47.734375 144.804688 47.734375 C 144.898438 47.734375 144.980469 47.742188 145.046875 47.761719 C 145.117188 47.78125 145.1875 47.851563 145.265625 47.96875 C 145.421875 48.609375 145.5 49.582031 145.5 50.878906 C 145.5 51.199219 145.515625 51.515625 145.546875 51.828125 C 145.855469 51.789063 146.167969 51.769531 146.480469 51.769531 C 146.480469 51.769531 146.734375 51.769531 147.242188 51.769531 C 147.425781 51.769531 147.597656 51.761719 147.753906 51.742188 L 147.710938 52.796875 L 145.574219 52.738281 L 145.648438 57.785156 C 145.472656 57.863281 145.320313 57.902344 145.195313 57.902344 C 144.707031 57.902344 144.460938 57.359375 144.460938 56.277344 Z M 151.296875 56.421875 C 152.121094 56.421875 153.378906 56.039063 155.074219 55.273438 L 155.121094 55.253906 L 155.171875 55.253906 C 155.347656 55.253906 155.492188 55.316406 155.605469 55.4375 C 155.71875 55.554688 155.773438 55.695313 155.773438 55.851563 L 155.773438 55.917969 L 155.738281 55.972656 C 155.320313 56.683594 154.53125 57.238281 153.375 57.625 C 152.226563 58.011719 151.15625 58.078125 150.15625 57.820313 C 148.980469 57.515625 148.265625 56.847656 148.011719 55.820313 L 148.003906 55.789063 C 147.984375 55.597656 147.972656 55.339844 147.972656 55.019531 C 147.972656 54.683594 148.058594 54.246094 148.226563 53.710938 C 148.398438 53.171875 148.6875 52.65625 149.097656 52.175781 C 149.507813 51.691406 149.992188 51.3125 150.546875 51.035156 C 151.105469 50.753906 151.703125 50.613281 152.335938 50.613281 C 152.941406 50.613281 153.613281 50.820313 154.351563 51.230469 C 154.707031 51.429688 154.992188 51.65625 155.207031 51.914063 C 155.4375 52.191406 155.554688 52.480469 155.554688 52.78125 C 155.554688 52.859375 155.546875 52.9375 155.535156 53.019531 L 155.304688 52.984375 L 155.539063 52.992188 C 155.515625 53.703125 155.171875 54.152344 154.503906 54.335938 C 154.238281 54.410156 153.9375 54.449219 153.59375 54.449219 L 153.585938 54.449219 L 151.476563 54.359375 L 151.484375 54.125 L 151.484375 54.359375 C 150.839844 54.359375 150.351563 54.496094 150.023438 54.761719 L 150.019531 54.765625 C 149.847656 54.898438 149.722656 55.105469 149.648438 55.386719 L 149.421875 55.328125 L 149.648438 55.265625 C 149.859375 56.039063 150.410156 56.421875 151.296875 56.421875 Z M 151.296875 56.890625 C 150.171875 56.890625 149.472656 56.390625 149.195313 55.386719 L 149.179688 55.328125 L 149.195313 55.265625 C 149.296875 54.882813 149.476563 54.59375 149.734375 54.394531 L 149.875 54.582031 L 149.726563 54.398438 C 150.140625 54.0625 150.726563 53.890625 151.484375 53.890625 L 151.492188 53.890625 L 153.601563 53.980469 L 153.59375 54.214844 L 153.59375 53.980469 C 153.894531 53.980469 154.15625 53.949219 154.378906 53.886719 C 154.824219 53.761719 155.054688 53.457031 155.070313 52.976563 L 155.070313 52.964844 L 155.074219 52.953125 C 155.082031 52.894531 155.085938 52.835938 155.085938 52.78125 C 155.085938 52.59375 155.003906 52.402344 154.847656 52.214844 C 154.667969 52 154.429688 51.808594 154.121094 51.640625 C 153.457031 51.269531 152.859375 51.082031 152.335938 51.082031 C 151.777344 51.082031 151.25 51.207031 150.757813 51.453125 C 150.257813 51.703125 149.824219 52.042969 149.453125 52.480469 C 149.085938 52.914063 148.824219 53.371094 148.671875 53.851563 C 148.519531 54.34375 148.441406 54.730469 148.441406 55.019531 C 148.441406 55.324219 148.453125 55.5625 148.46875 55.742188 L 148.238281 55.765625 L 148.464844 55.707031 C 148.675781 56.554688 149.277344 57.109375 150.269531 57.367188 C 151.179688 57.601563 152.167969 57.539063 153.226563 57.183594 C 154.273438 56.828125 154.976563 56.347656 155.335938 55.734375 L 155.539063 55.851563 L 155.304688 55.851563 C 155.304688 55.816406 155.289063 55.785156 155.265625 55.757813 C 155.242188 55.734375 155.210938 55.722656 155.171875 55.722656 L 155.171875 55.488281 L 155.269531 55.699219 C 153.511719 56.496094 152.1875 56.890625 151.296875 56.890625 Z M 153.769531 52.328125 C 153.574219 52.1875 153.371094 52.085938 153.160156 52.023438 C 152.949219 51.964844 152.773438 51.933594 152.640625 51.933594 C 152.507813 51.933594 152.277344 51.980469 151.945313 52.078125 C 151.605469 52.175781 151.304688 52.285156 151.042969 52.40625 C 150.460938 52.679688 150.167969 52.933594 150.167969 53.175781 L 149.933594 53.175781 L 149.953125 52.941406 C 150.726563 53.011719 151.308594 53.042969 151.691406 53.042969 C 152.738281 53.042969 153.433594 52.960938 153.78125 52.789063 L 153.789063 52.785156 L 153.792969 52.785156 C 153.933594 52.726563 154.003906 52.675781 154.003906 52.632813 C 154.003906 52.539063 153.925781 52.4375 153.769531 52.328125 Z M 154.042969 51.945313 C 154.328125 52.148438 154.46875 52.378906 154.46875 52.632813 C 154.46875 52.882813 154.304688 53.078125 153.976563 53.214844 L 153.886719 53 L 153.988281 53.210938 C 153.574219 53.410156 152.808594 53.511719 151.691406 53.511719 C 151.292969 53.511719 150.703125 53.476563 149.914063 53.410156 L 149.699219 53.390625 L 149.699219 53.175781 C 149.699219 52.734375 150.082031 52.335938 150.84375 51.984375 C 151.128906 51.851563 151.453125 51.734375 151.816406 51.625 C 152.1875 51.519531 152.464844 51.464844 152.640625 51.464844 C 152.820313 51.464844 153.035156 51.5 153.292969 51.574219 C 153.550781 51.652344 153.800781 51.773438 154.042969 51.945313 Z M 151.296875 56.65625 C 152.152344 56.65625 153.445313 56.269531 155.171875 55.488281 C 155.28125 55.488281 155.367188 55.523438 155.4375 55.597656 C 155.503906 55.671875 155.539063 55.753906 155.539063 55.851563 C 155.148438 56.515625 154.402344 57.035156 153.300781 57.402344 C 152.199219 57.773438 151.167969 57.839844 150.210938 57.59375 C 149.128906 57.3125 148.472656 56.703125 148.238281 55.765625 C 148.21875 55.578125 148.207031 55.332031 148.207031 55.019531 C 148.207031 54.707031 148.289063 54.292969 148.449219 53.78125 C 148.609375 53.269531 148.886719 52.785156 149.277344 52.328125 C 149.667969 51.867188 150.125 51.507813 150.652344 51.246094 C 151.179688 50.980469 151.738281 50.847656 152.335938 50.847656 C 152.898438 50.847656 153.535156 51.042969 154.234375 51.433594 C 154.566406 51.621094 154.832031 51.828125 155.027344 52.0625 C 155.222656 52.296875 155.320313 52.535156 155.320313 52.78125 C 155.320313 52.847656 155.3125 52.917969 155.304688 52.984375 C 155.285156 53.582031 154.996094 53.957031 154.441406 54.113281 C 154.195313 54.179688 153.914063 54.214844 153.59375 54.214844 L 151.484375 54.125 C 150.78125 54.125 150.246094 54.277344 149.875 54.582031 C 149.660156 54.746094 149.511719 54.996094 149.421875 55.328125 C 149.667969 56.214844 150.289063 56.65625 151.296875 56.65625 Z M 153.90625 52.136719 C 153.6875 51.980469 153.460938 51.867188 153.226563 51.800781 C 152.992188 51.730469 152.796875 51.699219 152.640625 51.699219 C 152.484375 51.699219 152.230469 51.75 151.878906 51.851563 C 151.53125 51.953125 151.21875 52.070313 150.945313 52.195313 C 150.269531 52.507813 149.933594 52.835938 149.933594 53.175781 C 150.714844 53.242188 151.300781 53.277344 151.691406 53.277344 C 152.773438 53.277344 153.503906 53.183594 153.886719 53 C 154.117188 52.902344 154.234375 52.78125 154.234375 52.632813 C 154.234375 52.457031 154.125 52.292969 153.90625 52.136719 Z M 163.464844 52.53125 C 163.09375 52.269531 162.613281 52.136719 162.019531 52.136719 C 161.449219 52.136719 160.917969 52.242188 160.429688 52.453125 C 159.503906 52.84375 158.871094 53.335938 158.535156 53.933594 C 158.402344 54.1875 158.332031 54.464844 158.332031 54.753906 L 158.332031 55.246094 C 158.332031 55.496094 158.378906 55.84375 158.472656 56.28125 C 158.574219 56.75 158.625 57.226563 158.625 57.710938 L 158.625 57.933594 L 158.402344 57.945313 C 158.21875 57.953125 158.070313 57.976563 157.960938 58.007813 C 157.8125 58.054688 157.683594 58.078125 157.570313 58.078125 C 157.410156 58.078125 157.273438 58.007813 157.164063 57.875 C 157.082031 57.773438 157 57.597656 156.910156 57.347656 L 156.90625 57.332031 L 156.902344 57.3125 C 156.890625 57.246094 156.871094 57.078125 156.839844 56.800781 L 156.730469 55.804688 L 156.585938 54.527344 L 156.433594 53.15625 C 156.324219 52.183594 156.242188 51.46875 156.183594 51.011719 L 156.183594 50.980469 C 156.183594 50.78125 156.257813 50.628906 156.410156 50.523438 C 156.535156 50.4375 156.710938 50.394531 156.929688 50.394531 C 157.214844 50.394531 157.441406 50.515625 157.605469 50.753906 C 157.734375 50.945313 157.835938 51.160156 157.914063 51.402344 C 157.984375 51.636719 158.035156 51.867188 158.0625 52.09375 C 158.085938 52.300781 158.105469 52.445313 158.121094 52.523438 L 157.894531 52.574219 L 157.738281 52.402344 C 159.070313 51.210938 160.722656 50.613281 162.691406 50.613281 C 162.910156 50.613281 163.136719 50.621094 163.375 50.628906 L 163.367188 50.863281 L 163.328125 50.632813 C 163.398438 50.621094 163.484375 50.613281 163.585938 50.613281 C 163.75 50.613281 163.902344 50.703125 164.035156 50.882813 L 163.847656 51.023438 L 164.03125 50.878906 C 164.171875 51.058594 164.242188 51.273438 164.242188 51.523438 C 164.242188 52.136719 164.046875 52.484375 163.648438 52.570313 L 163.546875 52.59375 Z M 163.734375 52.152344 L 163.601563 52.339844 L 163.550781 52.113281 C 163.699219 52.082031 163.777344 51.882813 163.777344 51.523438 C 163.777344 51.382813 163.738281 51.261719 163.664063 51.167969 L 163.660156 51.164063 C 163.621094 51.109375 163.59375 51.082031 163.585938 51.082031 C 163.511719 51.082031 163.449219 51.085938 163.40625 51.09375 L 163.378906 51.097656 L 163.355469 51.097656 C 163.125 51.089844 162.902344 51.082031 162.691406 51.082031 C 160.839844 51.082031 159.292969 51.640625 158.050781 52.75 L 157.753906 53.015625 L 157.664063 52.625 C 157.644531 52.53125 157.621094 52.371094 157.59375 52.148438 C 157.574219 51.949219 157.53125 51.746094 157.464844 51.539063 C 157.402344 51.34375 157.320313 51.167969 157.21875 51.019531 C 157.148438 50.914063 157.050781 50.863281 156.929688 50.863281 C 156.742188 50.863281 156.648438 50.902344 156.648438 50.980469 L 156.417969 50.980469 L 156.648438 50.953125 C 156.707031 51.410156 156.789063 52.128906 156.898438 53.105469 L 157.050781 54.472656 L 157.199219 55.753906 L 157.308594 56.75 C 157.335938 57.019531 157.355469 57.179688 157.363281 57.234375 L 157.132813 57.273438 L 157.355469 57.195313 C 157.421875 57.394531 157.480469 57.519531 157.527344 57.578125 C 157.542969 57.597656 157.558594 57.609375 157.570313 57.609375 C 157.636719 57.609375 157.71875 57.59375 157.824219 57.5625 C 157.96875 57.515625 158.15625 57.488281 158.378906 57.476563 L 158.390625 57.710938 L 158.15625 57.710938 C 158.15625 57.257813 158.109375 56.816406 158.015625 56.378906 C 157.914063 55.90625 157.863281 55.53125 157.863281 55.246094 L 157.863281 54.753906 C 157.863281 54.386719 157.953125 54.035156 158.128906 53.703125 C 158.515625 53.015625 159.222656 52.453125 160.242188 52.023438 C 160.789063 51.789063 161.382813 51.667969 162.019531 51.667969 C 162.714844 51.667969 163.285156 51.828125 163.734375 52.152344 Z M 163.601563 52.339844 C 163.191406 52.050781 162.664063 51.902344 162.019531 51.902344 C 161.414063 51.902344 160.855469 52.015625 160.335938 52.238281 C 159.363281 52.648438 158.695313 53.175781 158.332031 53.820313 C 158.175781 54.113281 158.097656 54.425781 158.097656 54.753906 C 158.097656 54.8125 158.097656 54.976563 158.097656 55.246094 C 158.097656 55.515625 158.148438 55.875 158.246094 56.328125 C 158.34375 56.78125 158.390625 57.242188 158.390625 57.710938 C 158.1875 57.722656 158.019531 57.746094 157.894531 57.785156 C 157.765625 57.824219 157.660156 57.84375 157.570313 57.84375 C 157.484375 57.84375 157.410156 57.804688 157.34375 57.726563 C 157.28125 57.648438 157.210938 57.496094 157.132813 57.273438 C 157.125 57.214844 157.105469 57.046875 157.074219 56.773438 C 157.046875 56.5 157.007813 56.171875 156.964844 55.78125 C 156.921875 55.390625 156.871094 54.964844 156.820313 54.5 C 156.765625 54.035156 156.714844 53.582031 156.664063 53.132813 C 156.558594 52.15625 156.476563 51.4375 156.417969 50.980469 C 156.417969 50.746094 156.585938 50.628906 156.929688 50.628906 C 157.132813 50.628906 157.292969 50.714844 157.410156 50.886719 C 157.527344 51.054688 157.621094 51.25 157.6875 51.472656 C 157.757813 51.691406 157.804688 51.90625 157.828125 52.121094 C 157.851563 52.335938 157.875 52.488281 157.894531 52.574219 C 159.179688 51.425781 160.78125 50.847656 162.691406 50.847656 C 162.90625 50.847656 163.132813 50.855469 163.367188 50.863281 C 163.425781 50.855469 163.496094 50.847656 163.585938 50.847656 C 163.671875 50.847656 163.761719 50.90625 163.847656 51.023438 C 163.957031 51.160156 164.007813 51.328125 164.007813 51.523438 C 164.007813 52.011719 163.875 52.28125 163.601563 52.339844 Z M 170.15625 54.476563 C 170.15625 53.335938 170.09375 52.5 169.96875 51.96875 L 169.949219 51.882813 L 169.992188 51.808594 C 169.960938 51.863281 169.980469 51.910156 170.046875 51.953125 C 170.023438 51.9375 169.957031 51.933594 169.847656 51.933594 C 169.539063 51.933594 169.132813 52.011719 168.628906 52.167969 C 168.117188 52.332031 167.699219 52.492188 167.378906 52.652344 C 166.652344 53.003906 166.253906 53.320313 166.183594 53.609375 L 165.957031 53.554688 L 166.191406 53.554688 L 166.191406 57.769531 L 164.8125 57.769531 L 164.757813 57.621094 C 164.621094 57.261719 164.550781 56.300781 164.550781 54.742188 C 164.550781 53.367188 164.578125 52.359375 164.632813 51.707031 C 164.6875 51.046875 164.734375 50.660156 164.769531 50.554688 L 164.792969 50.476563 L 164.863281 50.433594 C 165.15625 50.242188 165.402344 50.148438 165.605469 50.148438 C 166.003906 50.148438 166.203125 50.511719 166.203125 51.246094 C 166.203125 51.476563 166.191406 51.703125 166.167969 51.921875 C 166.144531 52.125 166.132813 52.257813 166.132813 52.328125 L 165.898438 52.328125 L 165.757813 52.136719 C 167.378906 50.945313 168.648438 50.351563 169.570313 50.351563 C 170.699219 50.351563 171.335938 51.21875 171.484375 52.949219 C 171.542969 53.511719 171.574219 54.289063 171.574219 55.28125 L 171.558594 56.441406 C 171.558594 56.863281 171.570313 57.273438 171.589844 57.671875 L 171.59375 57.8125 L 171.476563 57.882813 C 171.339844 57.964844 171.222656 58.003906 171.121094 58.003906 L 171.082031 58.003906 L 171.046875 57.992188 C 171.027344 57.984375 170.972656 57.972656 170.882813 57.957031 C 170.796875 57.9375 170.679688 57.925781 170.535156 57.914063 L 170.363281 57.90625 L 170.324219 57.738281 C 170.222656 57.332031 170.164063 56.917969 170.15625 56.496094 C 170.144531 56.089844 170.140625 55.714844 170.140625 55.371094 L 170.15625 54.472656 Z M 170.621094 54.480469 L 170.609375 55.371094 C 170.609375 55.710938 170.613281 56.082031 170.621094 56.484375 C 170.632813 56.871094 170.683594 57.25 170.777344 57.625 L 170.550781 57.683594 L 170.5625 57.449219 C 170.730469 57.457031 170.867188 57.476563 170.976563 57.496094 C 171.082031 57.519531 171.15625 57.535156 171.195313 57.546875 L 171.121094 57.769531 L 171.121094 57.535156 C 171.136719 57.535156 171.171875 57.515625 171.234375 57.480469 L 171.355469 57.683594 L 171.121094 57.695313 C 171.101563 57.289063 171.089844 56.871094 171.089844 56.433594 L 171.105469 55.28125 C 171.105469 54.304688 171.078125 53.542969 171.019531 52.992188 C 170.894531 51.542969 170.410156 50.820313 169.570313 50.820313 C 168.753906 50.820313 167.574219 51.386719 166.035156 52.515625 L 165.664063 52.789063 L 165.664063 52.328125 C 165.664063 52.238281 165.675781 52.085938 165.703125 51.867188 C 165.722656 51.667969 165.734375 51.460938 165.734375 51.246094 C 165.734375 50.824219 165.691406 50.613281 165.605469 50.613281 C 165.496094 50.613281 165.332031 50.683594 165.117188 50.824219 L 164.988281 50.628906 L 165.210938 50.703125 C 165.1875 50.773438 165.152344 51.121094 165.097656 51.746094 C 165.046875 52.382813 165.019531 53.382813 165.019531 54.742188 C 165.019531 56.242188 165.078125 57.148438 165.195313 57.453125 L 164.976563 57.535156 L 164.976563 57.300781 L 165.957031 57.300781 L 165.957031 57.535156 L 165.722656 57.535156 L 165.722656 53.527344 L 165.726563 53.5 C 165.832031 53.066406 166.3125 52.644531 167.167969 52.234375 C 167.511719 52.0625 167.949219 51.894531 168.488281 51.722656 C 169.039063 51.550781 169.492188 51.464844 169.847656 51.464844 C 170.046875 51.464844 170.195313 51.492188 170.292969 51.554688 C 170.476563 51.667969 170.511719 51.824219 170.40625 52.027344 L 170.199219 51.917969 L 170.425781 51.863281 C 170.558594 52.429688 170.621094 53.300781 170.621094 54.476563 Z M 170.390625 54.476563 C 170.390625 53.316406 170.324219 52.464844 170.199219 51.917969 C 170.277344 51.769531 170.160156 51.699219 169.847656 51.699219 C 169.515625 51.699219 169.085938 51.78125 168.558594 51.945313 C 168.035156 52.113281 167.605469 52.277344 167.273438 52.445313 C 166.480469 52.824219 166.042969 53.195313 165.957031 53.554688 L 165.957031 57.535156 L 164.976563 57.535156 C 164.847656 57.203125 164.785156 56.273438 164.785156 54.742188 C 164.785156 53.375 164.8125 52.371094 164.867188 51.726563 C 164.917969 51.082031 164.960938 50.71875 164.988281 50.628906 C 165.242188 50.464844 165.449219 50.382813 165.605469 50.382813 C 165.847656 50.382813 165.96875 50.667969 165.96875 51.246094 C 165.96875 51.46875 165.957031 51.6875 165.933594 51.894531 C 165.910156 52.105469 165.898438 52.25 165.898438 52.328125 C 167.476563 51.167969 168.703125 50.585938 169.570313 50.585938 C 170.554688 50.585938 171.117188 51.378906 171.253906 52.972656 C 171.3125 53.527344 171.339844 54.296875 171.339844 55.28125 L 171.324219 56.4375 C 171.324219 56.867188 171.335938 57.28125 171.355469 57.683594 C 171.257813 57.742188 171.179688 57.769531 171.121094 57.769531 C 171.089844 57.761719 171.027344 57.746094 170.929688 57.726563 C 170.832031 57.707031 170.707031 57.691406 170.550781 57.683594 C 170.453125 57.292969 170.398438 56.894531 170.390625 56.488281 C 170.378906 56.085938 170.375 55.710938 170.375 55.371094 Z M 170.390625 54.476563 "
     id="path18" />
</svg>
